<?xml version="1.0" encoding="UTF-8"?>
<svg width="54px" height="55px" viewBox="0 0 54 55" version="1.1" xmlns="http://www.w3.org/2000/svg" xmlns:xlink="http://www.w3.org/1999/xlink">
    <!-- Generator: Sketch 50.2 (55047) - http://www.bohemiancoding.com/sketch -->
    <title>Icono facebook celeste</title>
    <desc>Created with Sketch.</desc>
    <defs></defs>
    <g id="Final" stroke="none" stroke-width="1" fill="none" fill-rule="evenodd">
        <g id="Contactanos" transform="translate(-250.000000, -564.000000)">
            <g id="Page-1" transform="translate(250.000000, 564.000000)">
                <g id="Icono-facebook-celeste">
                    <path d="M53.4534295,27.6395508 C53.4534295,42.3888729 41.487302,54.3462458 26.7271812,54.3462458 C11.9651946,54.3462458 0,42.3888729 0,27.6395508 C0,12.8892966 11.9651946,0.932855932 26.7271812,0.932855932 C41.487302,0.932855932 53.4534295,12.8892966 53.4534295,27.6395508 L40.557481,40.9473888" id="Fill-1" fill="#01A8B7"></path>
                    <path d="M22.4185544,45.2129831 L29.2789973,45.2129831 L29.2789973,28.0464576 L34.064702,28.0464576 L34.5749906,22.2984915 L29.2789973,22.2984915 L29.2789973,19.0245932 C29.2789973,17.6691695 29.5514,17.1340847 30.8630376,17.1340847 L34.5749906,17.1340847 L34.5749906,11.1679831 L29.8247356,11.1679831 C24.7199839,11.1679831 22.4185544,13.4155254 22.4185544,17.7157797 L22.4185544,22.2984915 L18.8502658,22.2984915 L18.8502658,28.1182373 L22.4185544,28.1182373 L22.4185544,45.2129831 Z" id="Fill-3" fill="#FBFBFD"></path>
                </g>
            </g>
        </g>
    </g>
</svg>