<?xml version="1.0" encoding="UTF-8"?>
<svg width="33px" height="34px" viewBox="0 0 33 34" version="1.1" xmlns="http://www.w3.org/2000/svg" xmlns:xlink="http://www.w3.org/1999/xlink">
    <!-- Generator: Sketch 50.2 (55047) - http://www.bohemiancoding.com/sketch -->
    <title>Page 1</title>
    <desc>Created with Sketch.</desc>
    <defs>
        <polygon id="path-1" points="0 33.7294754 0 0.407662824 32.7103253 0.407662824 32.7103253 33.7294754 9.33769369e-16 33.7294754"></polygon>
    </defs>
    <g id="Symbols" stroke="none" stroke-width="1" fill="none" fill-rule="evenodd">
        <g id="FOOTER" transform="translate(-959.000000, -103.000000)">
            <g id="Logo-fb-e-ig">
                <g transform="translate(959.000000, 103.000000)">
                    <g id="Page-1">
                        <path d="M16.3725173,14.3807277 C14.6313492,14.3807277 13.2207176,15.8183062 13.2207176,17.5914359 C13.2207176,19.3645657 14.6313492,20.8027257 16.3725173,20.8027257 C18.1131145,20.8027257 19.5243169,19.3645657 19.5243169,17.5914359 C19.5243169,15.8183062 18.1131145,14.3807277 16.3725173,14.3807277" id="Fill-1" fill="#FFFFFF"></path>
                        <path d="M21.4200778,13.6055287 C20.7932573,13.6055287 20.2851788,13.0879539 20.2851788,12.4499994 C20.2851788,11.8114633 20.7932573,11.293307 21.4200778,11.293307 C22.0468983,11.293307 22.554406,11.8114633 22.554406,12.4499994 C22.554406,13.0879539 22.0468983,13.6055287 21.4200778,13.6055287 M16.3724031,22.538055 C13.6904334,22.538055 11.5165423,20.3235328 11.5165423,17.5914359 C11.5165423,14.8599205 13.6904334,12.6453984 16.3724031,12.6453984 C19.0538019,12.6453984 21.227693,14.8599205 21.227693,17.5914359 C21.227693,20.3235328 19.0538019,22.538055 16.3724031,22.538055 M23.7435382,11.9103259 C23.5722757,11.4607919 23.3667608,11.1403607 23.0362243,10.8030648 C22.7056878,10.4663505 22.3899941,10.2569944 21.9492788,10.082531 C21.6158879,9.95110186 21.1152307,9.79350325 20.1938388,9.75105049 C19.1959497,9.70452692 18.8968113,9.69405911 16.3724031,9.69405911 C13.8468531,9.69405911 13.5482856,9.70452692 12.5515382,9.75105049 C11.6295755,9.79350325 11.1289183,9.95110186 10.7955274,10.082531 C10.3536703,10.2569944 10.0391183,10.4663505 9.70801098,10.8030648 C9.37690361,11.1403607 9.17253044,11.4607919 9.00069713,11.9103259 C8.87167943,12.249948 8.71697237,12.7599627 8.67529851,13.6991574 C8.6301994,14.7145344 8.61992366,15.0198453 8.61992366,17.5914359 C8.61992366,20.1636081 8.6301994,20.4683375 8.67529851,21.484296 C8.71697237,22.4234907 8.87167943,22.9335054 9.00069713,23.2725459 C9.17253044,23.72208 9.37690361,24.0430926 9.70801098,24.3803886 C10.0391183,24.7171029 10.3536703,24.9258775 10.7955274,25.1009224 C11.1289183,25.2323515 11.6295755,25.3899501 12.5515382,25.4324029 C13.5482856,25.4789265 13.8468531,25.4888127 16.3724031,25.4888127 C18.8973822,25.4888127 19.1959497,25.4789265 20.1938388,25.4324029 C21.1152307,25.3899501 21.6158879,25.2323515 21.9492788,25.1009224 C22.3899941,24.9258775 22.7056878,24.7171029 23.0362243,24.3803886 C23.3667608,24.0430926 23.5722757,23.72208 23.7435382,23.2725459 C23.8731268,22.9335054 24.0266921,22.4234907 24.0695077,21.484296 C24.1151777,20.4683375 24.1237408,20.1636081 24.1237408,17.5914359 C24.1237408,15.0198453 24.1151777,14.7145344 24.0695077,13.6991574 C24.0266921,12.7599627 23.8731268,12.249948 23.7435382,11.9103259" id="Fill-3" fill="#FFFFFF"></path>
                        <g id="Group-7" transform="translate(0.000000, 0.174056)">
                            <mask id="mask-2" fill="white">
                                <use xlink:href="#path-1"></use>
                            </mask>
                            <g id="Clip-6"></g>
                            <path d="M25.7707716,21.3890972 C25.7251016,22.4143605 25.5658275,23.1145403 25.331198,23.7274883 C25.0902889,24.3607905 24.7666029,24.8981378 24.2408272,25.4331589 C23.7150515,25.9687616 23.1881341,26.2979159 22.5664515,26.5439093 C21.9647495,26.7823426 21.2774162,26.9451751 20.2703931,26.9922802 C19.2627992,27.0393853 18.9402549,27.0498531 16.3724602,27.0498531 C13.8040946,27.0498531 13.4826921,27.0393853 12.4733855,26.9922802 C11.4669332,26.9451751 10.7796,26.7823426 10.1784689,26.5439093 C9.55678625,26.2979159 9.02929796,25.9687616 8.50352229,25.4331589 C7.97774662,24.8981378 7.6546315,24.3607905 7.41315147,23.7274883 C7.17966369,23.1145403 7.018677,22.4143605 6.97300702,21.3890972 C6.92733704,20.3615077 6.91649042,20.0335165 6.91649042,17.4177285 C6.91649042,14.8019405 6.92733704,14.4733678 6.97300702,13.4463599 C7.018677,12.4210966 7.17966369,11.7203353 7.41315147,11.1079687 C7.6546315,10.474085 7.97774662,9.93731925 8.50352229,9.40229814 C9.02929796,8.86611395 9.55678625,8.53637811 10.1784689,8.29096625 C10.7796,8.05253293 11.4669332,7.88970042 12.4733855,7.8425953 C13.4826921,7.79607173 13.8040946,7.78444083 16.3724602,7.78444083 C18.9402549,7.78444083 19.2627992,7.79607173 20.2703931,7.8425953 C21.2774162,7.88970042 21.9647495,8.05253293 22.5664515,8.29096625 C23.1881341,8.53637811 23.7150515,8.86611395 24.2408272,9.40229814 C24.7666029,9.93731925 25.0902889,10.474085 25.331198,11.1079687 C25.5658275,11.7203353 25.7251016,12.4210966 25.7707716,13.4463599 C25.8170124,14.4733678 25.8278591,14.8019405 25.8278591,17.4177285 C25.8278591,20.0335165 25.8170124,20.3615077 25.7707716,21.3890972 M16.3553339,0.407546515 C7.32238238,0.407546515 -0.00022834991,7.86702018 -0.00022834991,17.0688017 C-0.00022834991,26.2705833 7.32238238,33.7294754 16.3553339,33.7294754 C25.3882855,33.7294754 32.7103253,26.2705833 32.7103253,17.0688017 C32.7103253,7.86702018 25.3882855,0.407546515 16.3553339,0.407546515" id="Fill-5" fill="#FFFFFF" mask="url(#mask-2)"></path>
                        </g>
                    </g>
                </g>
            </g>
        </g>
    </g>
</svg>