<?xml version="1.0" encoding="UTF-8"?>
<svg width="33px" height="33px" viewBox="0 0 33 33" version="1.1" xmlns="http://www.w3.org/2000/svg" xmlns:xlink="http://www.w3.org/1999/xlink">
    <!-- Generator: Sketch 50.2 (55047) - http://www.bohemiancoding.com/sketch -->
    <title>Page 1</title>
    <desc>Created with Sketch.</desc>
    <defs>
        <polygon id="path-1" points="32.7105537 32.766449 32.7105537 0.000171555682 0.000285437387 0.000171555682 0.000285437387 32.766449 32.7105537 32.766449"></polygon>
    </defs>
    <g id="Symbols" stroke="none" stroke-width="1" fill="none" fill-rule="evenodd">
        <g id="FOOTER" transform="translate(-959.000000, -149.000000)">
            <g id="Logo-fb-e-ig">
                <g transform="translate(959.000000, 103.000000)">
                    <g id="Page-1" transform="translate(0.000000, 45.963636)">
                        <mask id="mask-2" fill="white">
                            <use xlink:href="#path-1"></use>
                        </mask>
                        <g id="Clip-2"></g>
                        <path d="M21.1586172,9.93924998 L18.8865356,9.93924998 C18.0833148,9.93924998 17.9171902,10.2674932 17.9171902,11.0983945 L17.9171902,13.1067397 L21.1586172,13.1067397 L20.8463487,16.6327808 L17.9171902,16.6327808 L17.9171902,27.1640123 L13.719548,27.1640123 L13.719548,16.6773853 L11.5353811,16.6773853 L11.5353811,13.1067397 L13.719548,13.1067397 L13.719548,10.2955139 C13.719548,7.65813127 15.1278961,6.27996729 18.251152,6.27996729 L21.1586172,6.27996729 L21.1586172,9.93924998 Z M16.3552768,-0.000114370455 C7.32289617,-0.000114370455 0.000285437387,7.33503473 0.000285437387,16.3840251 C0.000285437387,25.4318718 7.32289617,32.766449 16.3552768,32.766449 C25.3882284,32.766449 32.7108391,25.4318718 32.7108391,16.3840251 C32.7108391,7.33503473 25.3882284,-0.000114370455 16.3552768,-0.000114370455 L16.3552768,-0.000114370455 Z" id="Fill-1" fill="#FFFFFF" mask="url(#mask-2)"></path>
                    </g>
                </g>
            </g>
        </g>
    </g>
</svg>