<?xml version="1.0" encoding="UTF-8"?>
<svg width="54px" height="55px" viewBox="0 0 54 55" version="1.1" xmlns="http://www.w3.org/2000/svg" xmlns:xlink="http://www.w3.org/1999/xlink">
    <!-- Generator: Sketch 50.2 (55047) - http://www.bohemiancoding.com/sketch -->
    <title>Icono Instagram celeste</title>
    <desc>Created with Sketch.</desc>
    <defs>
        <polygon id="path-1" points="53.5616443 0.654033898 53.5616443 54.0674237 0.108401342 54.0674237 0.108401342 0.654033898 53.5616443 0.654033898"></polygon>
    </defs>
    <g id="Final" stroke="none" stroke-width="1" fill="none" fill-rule="evenodd">
        <g id="Contactanos" transform="translate(-335.000000, -564.000000)">
            <g id="Page-1" transform="translate(250.000000, 564.000000)">
                <g id="Icono-Instagram-celeste" transform="translate(84.892617, 0.278822)">
                    <mask id="mask-2" fill="white">
                        <use xlink:href="#path-1"></use>
                    </mask>
                    <g id="Clip-6"></g>
                    <path d="M26.8355826,54.0674237 C12.073596,54.0674237 0.108401342,42.1100508 0.108401342,27.3607288 C0.108401342,12.6104746 12.073596,0.654033898 26.8355826,0.654033898 C41.5957034,0.654033898 53.5618309,12.6104746 53.5618309,27.3607288 C53.5618309,42.1100508 41.5957034,54.0674237 26.8355826,54.0674237 Z" id="Fill-5" fill="#01A8B7" mask="url(#mask-2)"></path>
                    <path d="M26.862543,12.4791271 C22.6664221,12.4791271 22.1402745,12.4977712 20.4918651,12.5723475 C18.8471872,12.6478559 17.7239926,12.9079407 16.7407309,13.2901441 C15.7248181,13.6844661 14.8637644,14.2120932 14.0045765,15.0706525 C13.1453886,15.9292119 12.6164423,16.7905678 12.2218315,17.8057373 C11.8393483,18.7882797 11.5781403,19.9106525 11.5035094,21.5531949 C11.4279456,23.2003983 11.4111537,23.726161 11.4111537,27.9192119 C11.4111537,32.1131949 11.4279456,32.6389576 11.5035094,34.286161 C11.5781403,35.9296356 11.8393483,37.0520085 12.2218315,38.0345508 C12.6164423,39.0497203 13.1453886,39.9110763 14.0045765,40.7696356 C14.8637644,41.6281949 15.7248181,42.155822 16.7407309,42.5501441 C17.7239926,42.9314153 18.8471872,43.1924322 20.4918651,43.2679407 C22.1402745,43.3425169 22.6664221,43.361161 26.862543,43.361161 C31.0595966,43.361161 31.5848114,43.3425169 33.2332208,43.2679407 C34.8788315,43.1924322 36.0020262,42.9314153 36.984355,42.5501441 C38.0002678,42.155822 38.8622544,41.6281949 39.7214423,40.7696356 C40.5806302,39.9110763 41.1077107,39.0497203 41.5032544,38.0345508 C41.8857376,37.0520085 42.1469456,35.9296356 42.2215765,34.286161 C42.2971403,32.6389576 42.3139322,32.1131949 42.3139322,27.9192119 C42.3139322,23.726161 42.2971403,23.2003983 42.2215765,21.5531949 C42.1469456,19.9106525 41.8857376,18.7882797 41.5032544,17.8057373 C41.1077107,16.7905678 40.5806302,15.9292119 39.7214423,15.0706525 C38.8622544,14.2120932 38.0002678,13.6844661 36.984355,13.2901441 C36.0020262,12.9079407 34.8788315,12.6478559 33.2332208,12.5723475 C31.5848114,12.4977712 31.0595966,12.4791271 26.862543,12.4791271 M26.862543,15.260822 C30.9886973,15.260822 31.4765966,15.2766695 33.1063483,15.3512458 C34.6138919,15.4192966 35.4320329,15.6719237 35.9759054,15.8826017 C36.6970262,16.1631949 37.2119792,16.4978559 37.753053,17.0385339 C38.293194,17.5782797 38.6281,18.0919237 38.9079658,18.8134492 C39.1206638,19.3578559 39.3716101,20.1753983 39.4397107,21.6799746 C39.5143416,23.3085339 39.5302007,23.7970085 39.5302007,27.9192119 C39.5302007,32.0423475 39.5143416,32.5317542 39.4397107,34.1593814 C39.3716101,35.6648898 39.1206638,36.4824322 38.9079658,37.026839 C38.6281,37.7465 38.293194,38.2610763 37.753053,38.8017542 C37.2119792,39.3415 36.6970262,39.6770932 35.9759054,39.9576864 C35.4320329,40.1683644 34.6138919,40.4200593 33.1063483,40.4890424 C31.4775295,40.5626864 30.9886973,40.5785339 26.862543,40.5785339 C22.7363886,40.5785339 22.2484893,40.5626864 20.6187376,40.4890424 C19.1121268,40.4200593 18.2939859,40.1683644 17.7491805,39.9576864 C17.0280597,39.6770932 16.5131067,39.3415 15.9729658,38.8017542 C15.4318919,38.2610763 15.0979188,37.7465 14.8171201,37.026839 C14.605355,36.4824322 14.3534758,35.6648898 14.2853752,34.1593814 C14.2098114,32.5317542 14.1948852,32.0423475 14.1948852,27.9192119 C14.1948852,23.7970085 14.2098114,23.3085339 14.2853752,21.6799746 C14.3534758,20.1753983 14.605355,19.3578559 14.8171201,18.8134492 C15.0979188,18.0919237 15.4318919,17.5782797 15.9729658,17.0385339 C16.5131067,16.4978559 17.0280597,16.1631949 17.7491805,15.8826017 C18.2939859,15.6719237 19.1121268,15.4192966 20.6187376,15.3512458 C22.2484893,15.2766695 22.7363886,15.260822 26.862543,15.260822" id="Fill-8" fill="#FBFBFD" mask="url(#mask-2)"></path>
                    <path d="M26.862543,33.0667458 C24.0181738,33.0667458 21.7120799,30.762339 21.7120799,27.9200508 C21.7120799,25.0777627 24.0181738,22.7733559 26.862543,22.7733559 C29.707845,22.7733559 32.013006,25.0777627 32.013006,27.9200508 C32.013006,30.762339 29.707845,33.0667458 26.862543,33.0667458 M26.862543,19.991661 C22.4807779,19.991661 18.9274154,23.5405593 18.9274154,27.9200508 C18.9274154,32.2995424 22.4807779,35.8484407 26.862543,35.8484407 C31.2443081,35.8484407 34.7976705,32.2995424 34.7976705,27.9200508 C34.7976705,23.5405593 31.2443081,19.991661 26.862543,19.991661" id="Fill-10" fill="#FBFBFD" mask="url(#mask-2)"></path>
                    <path d="M36.9648577,19.677322 C36.9648577,20.7008814 36.1345893,21.5305424 35.1112134,21.5305424 C34.0869047,21.5305424 33.2566362,20.7008814 33.2566362,19.677322 C33.2566362,18.6537627 34.0869047,17.8250339 35.1112134,17.8250339 C36.1345893,17.8250339 36.9648577,18.6537627 36.9648577,19.677322" id="Fill-12" fill="#FBFBFD" mask="url(#mask-2)"></path>
                </g>
            </g>
        </g>
    </g>
</svg>