<?xml version="1.0" encoding="UTF-8"?>
<svg width="273px" height="220px" viewBox="0 0 273 220" version="1.1" xmlns="http://www.w3.org/2000/svg" xmlns:xlink="http://www.w3.org/1999/xlink">
    <!-- Generator: Sketch 50.2 (55047) - http://www.bohemiancoding.com/sketch -->
    <title>Logo Jagua Salida</title>
    <desc>Created with Sketch.</desc>
    <defs>
        <polygon id="path-1" points="0 95.045045 0 0.139244334 41.0937698 0.139244334 41.0937698 95.045045 4.96170952e-15 95.045045"></polygon>
    </defs>
    <g id="Final" stroke="none" stroke-width="1" fill="none" fill-rule="evenodd">
        <g id="Móvil" transform="translate(-66.000000, -116.000000)">
            <g id="Logo" transform="translate(67.000000, 112.000000)">
                <g id="Page-1" transform="translate(-0.737127, 4.407767)">
                    <path d="M86.7310208,47.4996164 C86.7695971,32.111395 86.8880289,-0.0589571113 110.295263,0.000171031819 C119.918461,0.0236268241 125.845456,6.08865945 129.464752,14.3731964 L129.461803,15.6666856 C129.461803,16.5724213 129.327892,17.4749806 128.548011,17.7325057 L118.002421,22.8768985 C116.064513,16.797206 113.21011,14.4618886 110.480528,14.4560247 C103.459144,14.4384329 100.169836,29.4266841 100.131259,44.2998554 C100.092437,59.2973913 103.30705,74.3066551 109.549044,74.3213149 C119.169048,74.3481914 119.448911,67.496168 119.469796,59.220427 C119.472744,57.6664807 119.219664,54.9524501 117.921828,54.9465862 L111.028213,54.931682 C110.379541,54.9285057 109.602363,53.2445752 109.605557,52.8568217 L109.626443,44.0633429 C109.629391,43.4178199 110.281257,42.2545592 111.061138,42.2577355 C112.751617,42.2606675 122.115837,41.8963697 124.196502,41.902478 L125.497041,41.90541 C127.70572,41.9112739 129.527407,42.0446787 130.301145,44.5041163 C131.200195,49.2932516 131.188401,53.8187535 131.176361,58.6017805 C131.158425,65.5840323 130.36675,69.9793057 128.006222,76.56794 C125.125037,84.5773601 116.665763,87.0101656 109.385156,86.9925737 C88.7104535,86.9422415 86.6892502,63.9206257 86.7280723,48.5326486 L86.7310208,47.4996164 Z" id="Fill-1" fill="#F6A700"></path>
                    <path d="M140.183788,37.2112462 L140.183788,31.5193073 C140.183788,22.9862855 140.560214,16.1882594 141.439607,9.33305976 C141.816033,7.00678269 142.569132,5.84352199 144.82769,5.84352199 L153.818433,5.84352199 C154.071267,5.84352199 155.327087,6.48880061 155.327087,7.00678269 L155.327087,54.7955162 C155.327087,71.4769825 154.637381,74.9665203 165.057414,74.9665203 C168.951166,74.9665203 170.080445,67.7269877 170.080445,62.9410287 L170.330577,5.90729243 L181.863672,5.90729243 C181.990212,5.90729243 183.369377,6.29504599 183.495918,7.07055313 C183.998884,27.3717857 184.24877,40.1859782 184.24877,49.6247357 L184.24877,57.9004767 C184.24877,73.0279968 182.866657,87.5104825 163.532543,88.2859896 C136.666461,88.2859896 141.313312,58.4152825 140.183788,37.2112462" id="Fill-3" fill="#F6A700"></path>
                    <path d="M158.137237,174.76085 C158.409483,175.83664 160.30734,175.835663 161.530235,175.831021 C168.174455,175.821247 173.296999,160.327475 173.273656,145.36048 C173.250314,132.820672 169.029031,120.280863 165.090068,116.916667 C163.865945,115.84161 161.018177,114.632415 159.25202,114.636324 C157.760319,114.639012 157.492005,115.446771 157.495445,117.200091 C157.523947,133.516527 158.094238,149.944866 158.127409,168.963849 L158.137237,174.76085 Z M144.180959,103.873048 C144.179239,101.849741 146.074148,101.169279 147.565848,101.166836 L150.006231,101.163415 C179.165761,101.11406 187.057938,115.532287 187.117154,149.515332 C187.152782,170.014961 179.995029,188.613939 158.432825,189.863448 C158.432825,189.863448 157.755651,189.865647 157.621248,189.866136 C155.721179,189.87029 145.820576,189.483025 145.820576,189.483025 L144.599156,188.404791 L144.180959,103.873048 Z" id="Fill-5" fill="#00A7B6"></path>
                    <g id="Group-9" transform="translate(0.000000, 94.849604)">
                        <mask id="mask-2" fill="white">
                            <use xlink:href="#path-1"></use>
                        </mask>
                        <g id="Clip-8"></g>
                        <path d="M5.9377084,68.1155964 L8.48227209,68.1155964 C9.89509955,68.1155964 11.4526497,68.2568198 12.5816831,68.9590276 C16.1164546,71.207363 11.9249026,81.4081894 18.4271032,81.4081894 C24.506684,81.4081894 26.676787,77.1910334 26.676787,71.7097079 C26.676787,64.6827435 21.8712079,56.950395 16.2142468,52.5949475 C-2.44392123,38.2556398 0.160104065,28.8393609 0.160104065,21.8094644 C0.160104065,9.58044507 9.63120795,0.139244334 22.7773832,0.139244334 C36.204404,0.139244334 40.8711574,10.2843632 40.8711574,22.5131382 C40.4455892,25.8871073 39.3165557,27.1551861 38.1845738,27.2966539 L30.2695458,27.2966539 C23.6255711,27.014207 29.7022034,13.9031521 23.3420228,13.9031521 C22.7773832,13.762173 22.2100408,13.762173 21.6454013,13.762173 C15.9913886,13.762173 13.728899,18.1562248 13.728899,21.8094644 C13.728899,22.6528956 13.8709189,23.4963268 14.012693,24.4807371 C16.8412965,37.5531877 41.0937698,46.6904405 41.0937698,69.743575 C41.0937698,84.502888 34.3520029,95.045045 17.6710562,95.045045 C7.63408419,95.045045 -9.82836495e-05,88.6384374 -9.82836495e-05,71.207363 C-9.82836495e-05,68.1155964 0.709263957,68.1155964 5.9377084,68.1155964" id="Fill-7" fill="#00A7B6" mask="url(#mask-2)"></path>
                    </g>
                    <path d="M95.6990352,103.605383 L95.6862584,102.933472 C96.1056838,96.4516106 96.0879928,95.5072707 102.054793,95.3958557 L104.902808,95.3428358 C107.480051,95.2944582 109.790945,95.6541137 109.847212,98.6222488 C110.012575,107.384942 109.329749,120.132676 109.244734,173.005941 C109.285521,175.16534 110.635201,175.916414 112.455906,176.161234 C113.477319,176.298793 129.317449,176.186645 130.487516,176.164655 L131.166164,176.15195 C134.14809,176.096242 136.861702,176.181758 136.920426,179.283054 L136.832708,187.0672 C136.863176,188.682718 135.942013,190.186088 134.31419,190.216385 C131.334721,190.405497 102.441294,190.052438 99.5932791,190.105458 L98.9148762,190.118164 C96.0668618,190.171428 95.4818284,187.888153 95.4334237,185.328295 C95.3801048,182.496253 95.6329395,181.54727 95.533673,176.288531 C95.356271,152.552735 96.1447516,127.202887 95.6990352,103.605383" id="Fill-10" fill="#00A7B6"></path>
                    <path d="M122.628436,115.087042 C122.602882,113.466882 124.215225,112.502751 125.573014,112.47954 L132.907186,112.359329 C135.888374,112.316571 136.472916,114.867877 136.517635,117.698698 C136.533852,118.913268 136.417386,120.264908 136.43434,121.209493 C136.582994,131.050663 136.376844,156.991059 136.393061,166.975408 C136.393061,166.975408 136.393798,169.021926 136.399204,169.291424 C136.414192,170.369413 136.314434,172.662705 135.227417,172.680786 L124.638336,172.848885 C123.554022,172.864034 122.982994,170.851478 122.969234,169.909826 C122.482485,138.085202 123.016902,140.571028 122.628436,115.087042" id="Fill-12" fill="#00A7B6"></path>
                    <path d="M134.749881,108.811005 L124.418058,108.916068 C123.523677,108.92413 122.785321,108.202865 122.777213,107.313255 L122.721437,97.0774894 C122.713574,96.1878796 123.438907,95.4536644 124.333289,95.4458458 L134.665111,95.3405391 C135.559493,95.3327205 136.297849,96.0539861 136.305957,96.9435959 L136.361733,107.179362 C136.369596,108.068971 135.644508,108.803187 134.749881,108.811005" id="Fill-14" fill="#00A7B6"></path>
                    <path d="M207.259258,146.487873 C207.248692,146.89273 208.315316,147.589807 208.719753,147.597137 L216.027879,147.764504 C218.46556,147.821433 218.277838,144.179921 218.442709,142.837077 C218.748862,123.724027 218.670235,115.509124 212.444457,115.367657 C209.602094,115.303397 207.661238,117.142478 207.590719,120.104749 L207.047457,143.792412 L207.259258,146.487873 Z M209.535753,159.334073 C208.994456,159.321124 207.909896,159.431561 207.620942,160.097119 L207.568851,162.249188 C207.403489,169.51633 208.118503,179.636527 207.952649,186.767088 L207.90105,189.055738 C207.481625,189.71641 206.659236,190.10343 206.11499,190.090237 L195.831081,189.856167 C193.122383,189.794107 193.460725,186.973059 193.365635,185.220228 C193.2961,176.333659 193.416006,165.294776 193.584317,158.027879 C193.819952,147.798221 193.615276,139.176019 193.778181,132.041793 C194.057798,119.929319 195.464974,111.614241 201.689523,106.100664 C205.699005,102.421281 210.446105,102.124418 215.589289,102.242919 C228.719001,102.541736 231.652522,116.206934 231.798228,127.523132 C232.764356,179.656563 232.132638,187.64155 232.132638,187.64155 C232.080548,189.793374 229.233516,189.995192 226.391153,189.931177 L224.09279,189.880112 C222.059055,189.8332 218.618636,190.26811 218.465068,187.330272 L218.244667,163.164942 C218.150069,161.548691 217.91296,160.062424 216.573354,159.493377 L209.535753,159.334073 Z" id="Fill-16" fill="#00A7B6"></path>
                    <path d="M13.1599595,45.1188291 C13.6108358,28.2868548 13.2968195,9.28546405 13.4221312,4.60896546 C13.4258168,4.47727095 13.3194248,3.40612311 13.3290074,3.00541999 C13.4064058,0.0648943587 15.0251375,-0.0257525053 16.9057951,0.0253127092 C21.0725304,0.134284411 22.1374338,0.295542983 26.4336578,0.67914292 C27.4916813,1.24086028 27.8752332,2.05203976 27.8364112,3.52095876 C27.7177337,7.93113637 27.8693362,12.8883715 27.731002,17.9626412 C27.4703046,27.7158528 27.0609532,37.9985301 26.80689,47.4856651 C26.0464202,75.9375412 24.7734013,88.3400357 4.08567588,87.7920009 C2.33745547,87.7446006 0.466380488,87.4267258 0.52756206,85.1559119 L0.734203433,77.4101252 C0.746980307,76.8750399 1.46911942,75.021055 2.27553677,75.0435334 L8.31998121,75.2035704 C11.5451592,75.2868873 12.738077,60.8828318 13.1599595,45.1188291" id="Fill-18" fill="#F6A700"></path>
                    <path d="M61.7139006,146.396249 C61.7033351,146.801106 62.7699584,147.498183 63.1743957,147.505268 L70.4825221,147.672879 C72.9202023,147.729809 72.7324806,144.088297 72.8973514,142.745453 C73.203505,123.632158 73.124878,115.4175 66.8991003,115.276032 C64.0567371,115.211529 62.1158808,117.050854 62.0453622,120.012881 L61.5020994,143.700543 L61.7139006,146.396249 Z M63.9903957,159.242205 C63.4493442,159.229255 62.3645384,159.339693 62.0755845,160.005251 L62.0234941,162.15732 C61.8581319,169.424706 62.5731454,179.544659 62.4072918,186.67522 L62.3556929,188.96387 C61.9362674,189.624786 61.113879,190.011806 60.5696332,189.998368 L50.2857236,189.764299 C47.5770262,189.702483 47.9153677,186.881191 47.8202782,185.128359 C47.7507425,176.24179 47.8706486,165.203152 48.0389593,157.93601 C48.2745944,147.706597 48.0699187,139.08415 48.2328238,131.949924 C48.5124408,119.837451 49.919617,111.522373 56.1441662,106.008795 C60.1536477,102.329412 64.900748,102.03255 70.0439313,102.151051 C83.1736441,102.449868 86.1071653,116.115066 86.2528708,127.431508 C87.2189991,179.564694 87.0610081,188.557791 87.0610081,188.557791 C87.0089178,190.709616 84.1618862,189.843706 81.319523,189.779447 L79.0211599,189.728382 C75.1244589,189.728382 73.6303017,189.357732 73.3934381,188.008046 L72.6993098,163.073073 C72.6047118,161.456822 72.3676025,159.970556 71.0277507,159.401753 L63.9903957,159.242205 Z" id="Fill-20" fill="#00A7B6"></path>
                    <path d="M233.348947,121.036164 C233.329782,121.04667 233.311354,121.058643 233.292189,121.068904 C233.312337,121.069149 233.332731,121.069393 233.353124,121.069637 C233.35165,121.058398 233.350422,121.047403 233.348947,121.036164" id="Fill-22" fill="#00A7B6"></path>
                    <path d="M267.103926,133.367485 C266.779836,133.569547 266.390878,133.64309 266.014943,133.570768 C255.843569,130.831816 253.970528,128.268538 253.934654,126.615882 C253.92286,126.0742 254.530008,125.306755 255.01258,125.055339 C255.169588,124.973732 255.322665,124.897989 255.477462,124.819315 C250.176533,126.410155 245.380783,128.472799 244.658889,128.742052 C244.285903,128.88132 243.938716,129.025476 243.603569,129.172319 C241.894907,125.447734 237.683699,116.188316 236.27898,115.622201 C236.825191,115.55672 237.364768,115.436265 237.883952,115.255948 C237.966264,115.227362 238.059879,115.184604 238.077816,115.099576 C238.101404,114.987673 237.978304,114.904111 237.872158,114.860132 C237.087854,114.537615 236.21485,114.524176 235.365924,114.515625 C235.784367,114.293528 236.189541,114.045776 236.577762,113.774813 C236.664989,113.713974 236.762289,113.622839 236.73305,113.520953 C236.699388,113.404407 236.539186,113.393656 236.418051,113.408805 C235.346759,113.543187 233.964645,114.157924 232.81399,114.762644 C232.439037,114.959575 232.08841,115.155773 231.78152,115.333646 C231.774886,115.337799 231.772183,115.341464 231.766532,115.345129 C231.614438,115.428202 231.492812,115.503456 231.492812,115.503456 C236.065704,116.859494 238.668255,128.418801 239.440027,131.925931 C233.026036,137.717068 232.172689,148.096012 228.293679,156.051679 C224.714925,163.391143 219.985025,162.735114 219.370998,162.778117 C242.882412,164.274645 251.890846,148.643314 253.25748,145.564497 C265.426224,142.997554 267.739821,132.97118 267.103926,133.367485" id="Fill-24" fill="#F9D38E"></path>
                    <path d="M243.267045,120.213916 C243.267045,120.213916 256.334348,105.340989 259.979689,102.601304 C262.273137,100.545013 259.48827,99.1401087 257.952588,99.5066054 C257.628989,99.4633588 249.598478,98.8549742 244.371999,106.006303 C239.186063,113.102658 241.372382,121.013368 241.372382,121.013368 L243.267045,120.213916 Z" id="Fill-26" fill="#9A5919"></path>
                    <path d="M221.073074,164.029605 C221.034252,164.030338 220.996413,164.032049 220.957345,164.032537 C220.957345,164.032537 220.998624,164.034736 221.073074,164.029605" id="Fill-28" fill="#F9D38E"></path>
                    <path d="M236.418149,113.408927 C236.289152,113.425053 236.15524,113.448997 236.017889,113.478317 C236.15524,113.448997 236.289152,113.425053 236.418149,113.408927" id="Fill-30" fill="#F6A700"></path>
                    <path d="M235.99607,113.482642 C235.863633,113.511228 235.727756,113.546412 235.589913,113.585749 C235.727756,113.546412 235.863633,113.511228 235.99607,113.482642" id="Fill-32" fill="#F6A700"></path>
                    <path d="M235.550968,113.596475 C235.416319,113.635324 235.279705,113.679548 235.141371,113.726704 C235.279705,113.679548 235.416319,113.635324 235.550968,113.596475" id="Fill-34" fill="#F6A700"></path>
                    <path d="M234.678504,113.897101 C234.816347,113.843103 234.953453,113.791794 235.089575,113.744394 C234.953453,113.791794 234.816347,113.843103 234.678504,113.897101" id="Fill-36" fill="#F6A700"></path>
                    <path d="M236.686636,113.452344 C236.643391,113.417894 236.578769,113.405189 236.513656,113.403723 C236.578769,113.405189 236.643391,113.417894 236.686636,113.452344" id="Fill-38" fill="#F6A700"></path>
                    <path d="M243.865249,130.068306 C244.20015,129.921463 245.027699,129.291088 245.400931,129.152064 C245.828465,128.99276 246.99804,127.930408 249.490022,126.846066 C248.866412,125.936665 242.390994,116.691174 236.27898,115.622225 C237.683944,116.188829 242.156833,126.343966 243.865249,130.068306" id="Fill-40" fill="#F6A700"></path>
                    <path d="M249.892543,150.766527 C250.753507,149.747178 251.471224,148.745909 252.031686,147.792528 C251.488423,148.655995 250.780044,149.671679 249.892543,150.766527" id="Fill-42" fill="#F6A700"></path>
                    <path d="M236.577713,113.774715 C236.621449,113.744174 236.667397,113.706302 236.699093,113.6633 C236.667397,113.706302 236.621449,113.744174 236.577713,113.774715 C236.189492,114.045678 235.784318,114.29343 235.365875,114.515527 C236.108654,114.523101 236.869861,114.534096 237.574309,114.753017 C236.869861,114.534096 236.108654,114.523101 235.365875,114.515527 C235.784318,114.29343 236.189492,114.045678 236.577713,113.774715" id="Fill-44" fill="#F6A700"></path>
                    <path d="M238.07789,115.099674 L238.07789,115.099674 C238.073221,115.120931 238.06413,115.1395 238.051599,115.15587 C238.06413,115.1395 238.073221,115.120931 238.07789,115.099674" id="Fill-46" fill="#F6A700"></path>
                    <path d="M236.27898,115.622225 L236.27898,115.622225 C236.688577,115.573359 237.094488,115.493218 237.491063,115.380337 C237.094488,115.493218 236.688577,115.573359 236.27898,115.622225" id="Fill-48" fill="#F6A700"></path>
                    <path d="M233.281279,114.523688 C233.411751,114.458696 233.543942,114.394681 233.677608,114.331399 C233.543942,114.394681 233.411751,114.458451 233.281279,114.523688" id="Fill-50" fill="#F6A700"></path>
                    <path d="M232.025362,115.193937 C232.100057,115.151668 232.176718,115.108421 232.2551,115.065175 C232.176718,115.108421 232.100057,115.151668 232.025362,115.193937" id="Fill-52" fill="#F6A700"></path>
                    <path d="M231.80582,115.319914 C231.863562,115.286441 231.923515,115.252234 231.984205,115.217539 C231.923269,115.252234 231.863562,115.286441 231.80582,115.319914" id="Fill-54" fill="#F6A700"></path>
                    <path d="M231.78039,115.334696 C231.740585,115.357908 231.700534,115.380875 231.662203,115.403353 C231.694146,115.385028 231.729282,115.365482 231.766384,115.345202 C231.77179,115.341538 231.774738,115.338361 231.78039,115.334696" id="Fill-56" fill="#F6A700"></path>
                    <path d="M221.290723,162.839224 C221.90475,162.796221 224.715171,163.391168 228.293679,156.051704 C232.172689,148.096037 233.519912,139.218997 239.933903,133.427859 C239.161885,129.920974 236.521003,116.947966 231.948356,115.591684 C230.596956,115.988722 229.491265,116.538467 229.491265,116.538467 C227.00346,117.943371 226.166083,118.992285 223.841921,123.317435 C219.723836,130.980638 218.337545,133.677321 206.919934,140.159916 L207.378181,162.891999 C211.595532,162.537719 222.241617,162.825053 221.290723,162.839224" id="Fill-58" fill="#F6A700"></path>
                    <path d="M233.742451,114.301078 C233.876116,114.238529 234.010765,114.177446 234.145905,114.118318 C234.010765,114.177446 233.876116,114.238529 233.742451,114.301078" id="Fill-60" fill="#F6A700"></path>
                    <path d="M232.834973,114.751795 C232.960776,114.685826 233.089282,114.620101 233.219508,114.554376 C233.089282,114.620101 232.960776,114.685826 232.834973,114.751795" id="Fill-62" fill="#F6A700"></path>
                    <path d="M234.210846,114.090147 C234.347214,114.031263 234.483583,113.974089 234.619706,113.920336 C234.483583,113.974089 234.347214,114.031263 234.210846,114.090147" id="Fill-64" fill="#F6A700"></path>
                    <path d="M232.584448,114.884931 C232.640961,114.854634 232.698211,114.824093 232.755953,114.793552 C232.698211,114.824093 232.640961,114.854634 232.584448,114.884931" id="Fill-66" fill="#F6A700"></path>
                    <path d="M232.320999,115.028818 C232.378986,114.996566 232.437956,114.964315 232.497664,114.932063 C232.437956,114.964315 232.378986,114.996566 232.320999,115.028818" id="Fill-68" fill="#F6A700"></path>
                    <path d="M236.504762,129.027039 C236.923696,130.213023 236.820989,131.328639 236.275515,131.519217 C235.730041,131.709796 234.947949,130.903258 234.529015,129.717275 C234.110081,128.53178 234.212541,127.415675 234.758261,127.225097 C235.303736,127.034519 236.085582,127.841056 236.504762,129.027039" id="Fill-70" fill="#1D1D1B"></path>
                    <path d="M244.4092,126.18884 C244.88391,127.20599 244.963028,128.171343 244.58611,128.345307 C244.209192,128.51927 243.51875,127.835632 243.044285,126.818481 C242.569821,125.80133 242.490457,124.835734 242.867621,124.66177 C243.244538,124.48805 243.934735,125.171689 244.4092,126.18884" id="Fill-72" fill="#1D1D1B"></path>
                    <path d="M224.675686,122.21797 C224.675686,122.21797 224.534649,103.050678 224.696571,98.3262904 C224.849402,93.8762868 220.861297,97.2390167 220.861297,97.2390167 C220.861297,97.2390167 213.473315,102.694443 214.810219,111.519441 C215.752022,120.681859 223.51815,124.119355 223.51815,124.119355 L224.675686,122.21797 Z" id="Fill-74" fill="#9A5919"></path>
                    <path d="M267.330446,133.305694 C268.805929,131.553839 271.123703,128.923125 272.674619,123.206753 C272.800176,122.405103 272.059363,121.562893 271.409217,121.393327 C271.316339,121.369139 270.005235,121.320761 269.706207,121.314408 C266.885958,121.253081 262.054088,121.503276 255.012556,125.055363 C254.529983,125.30678 253.313231,126.074224 253.325025,126.615906 C253.263598,127.971211 255.13713,130.587509 266.014919,133.570793 C266.390854,133.643115 267.061394,133.576168 267.330446,133.305694" id="Fill-76" fill="#191919"></path>
                    <path d="M267.355631,123.022308 C267.449492,123.495333 266.245517,124.129372 264.667081,124.43894 C263.0884,124.748263 261.732577,124.615591 261.638717,124.14281 C261.545347,123.669785 262.74883,123.035502 264.327511,122.726178 C265.906193,122.416611 267.26177,122.549283 267.355631,123.022308" id="Fill-78" fill="#FFFFFF"></path>
                    <path d="M252.841052,145.546099 C248.961797,146.445237 244.749114,146.577421 241.592489,143.689671 C238.564615,140.919932 237.591361,136.458445 238.840055,132.668136 C238.849638,132.639549 238.850129,132.61365 238.849638,132.588484 C239.142523,132.502235 239.441551,132.438709 239.745984,132.40719 C240.189981,132.369319 240.647983,132.371029 241.10107,132.49124 C240.70081,132.235425 240.214306,132.124988 239.735665,132.116436 C239.253338,132.104219 238.773713,132.207327 238.3221,132.370052 C237.868275,132.534487 237.455975,132.788347 237.072669,133.070794 C236.883473,133.215438 236.710248,133.381094 236.534075,133.538443 C236.376821,133.719493 236.212933,133.889547 236.066736,134.075972 C236.269692,133.951607 236.454956,133.811117 236.646855,133.681133 L237.231152,133.314147 C237.436073,133.212506 237.620846,133.076169 237.830928,132.991386 L238.13487,132.842833 L238.327506,132.768067 C237.10928,136.693248 238.16976,141.177457 241.267907,144.020495 C244.553038,147.034564 248.908969,146.936587 252.96317,145.997134 C253.250895,145.930187 253.129023,145.479396 252.841052,145.546099" id="Fill-80" fill="#1D1D1B"></path>
                    <path d="M51.1484083,44.2658201 C51.1378428,44.6706769 52.2044661,45.3677537 52.6089033,45.3748393 L59.9170298,45.5424505 C62.35471,45.5993796 62.1669883,41.9578679 62.3318591,40.6150238 C62.6380126,21.5017293 62.5593857,13.2870711 56.3336079,13.1456033 C53.4912448,13.0810999 51.5503884,14.9204249 51.4798699,17.8824517 L50.936607,41.5701143 L51.1484083,44.2658201 Z M53.4249033,57.1117757 C52.8836061,57.0988261 51.7990461,57.2092638 51.5100921,57.8748219 L51.4580018,60.0268909 C51.2926396,67.2942772 52.0076531,77.4142299 51.8417995,84.5447908 L51.7902005,86.8334408 C51.3707751,87.4943567 50.5483866,87.8813772 50.0041409,87.867939 L39.7202313,87.6338698 C37.0115339,87.572054 37.3498753,84.750762 37.2547859,82.9979301 C37.1852502,74.1113612 37.3051563,63.0727232 37.473467,55.8055813 C37.7091021,45.5761682 37.5044264,36.9537212 37.6673315,29.8194954 C37.9469485,17.7070219 39.3541247,9.39194357 45.5786739,3.87836639 C49.5881554,0.198983305 54.3352556,-0.0978790666 59.478439,0.0206215507 C72.6081518,0.319438571 75.541673,13.9846366 75.6873785,25.301079 C76.6535068,77.4342651 76.4955158,86.4273624 76.4955158,86.4273624 C76.4434255,88.5791871 73.5963939,87.7132774 70.7540307,87.6490183 L68.4556676,87.5979531 C64.5589666,87.5979531 63.0648094,87.2273027 62.8279458,85.8776173 L62.1338175,60.9426441 C62.0392195,59.3263934 61.8021102,57.8401269 60.4622584,57.2713239 L53.4249033,57.1117757 Z" id="Fill-82" fill="#F6A700"></path>
                    <path d="M207.173726,44.2658201 C207.163161,44.6706769 208.229784,45.3677537 208.634221,45.3748393 L215.942348,45.5424505 C218.380028,45.5993796 218.192552,41.9578679 218.357177,40.6150238 C218.663331,21.5017293 218.584704,13.2870711 212.358926,13.1456033 C209.516563,13.0810999 207.575707,14.9204249 207.505188,17.8824517 L206.961925,41.5701143 L207.173726,44.2658201 Z M209.450221,57.1117757 C208.908924,57.0988261 207.824364,57.2092638 207.53541,57.8748219 L207.48332,60.0268909 C207.317958,67.2942772 208.032971,77.4142299 207.867118,84.5447908 L207.815519,86.8334408 C207.396093,87.4943567 206.573705,87.8813772 206.029459,87.867939 L195.745549,87.6338698 C193.036852,87.572054 193.375193,84.750762 193.280104,82.9979301 C193.210568,74.1113612 193.330474,63.0727232 193.498785,55.8055813 C193.73442,45.5761682 193.529745,36.9537212 193.69265,29.8194954 C193.972267,17.7070219 195.379443,9.39194357 201.603992,3.87836639 C205.613474,0.198983305 210.360574,-0.0978790666 215.503757,0.0206215507 C228.63347,0.319438571 231.566991,13.9846366 231.712451,25.301079 C232.678825,77.4342651 232.520834,86.4273624 232.520834,86.4273624 C232.468744,88.5791871 229.621712,87.7132774 226.779349,87.6490183 L224.480986,87.5979531 C220.584285,87.5979531 219.089882,87.2273027 218.853264,85.8776173 L218.159136,60.9426441 C218.064292,59.3263934 217.827428,57.8401269 216.487577,57.2713239 L209.450221,57.1117757 Z" id="Fill-84" fill="#F6A700"></path>
                    <path d="M49.8067382,203.457839 C50.6035729,203.457839 51.2507707,203.603216 51.7488231,203.893482 C52.2468755,204.184236 52.4957789,204.547068 52.4957789,204.982954 C52.4957789,205.366066 52.4225575,205.62017 52.276852,205.745512 C52.1304094,205.871098 51.9844582,205.933647 51.838507,205.933647 C51.6657734,205.933647 51.5129424,205.871098 51.3805051,205.745512 C51.2475765,205.62017 51.1146479,205.48139 50.981965,205.329416 C50.8490363,205.177931 50.7030851,205.039395 50.5438656,204.913564 C50.3844004,204.788222 50.1983986,204.725429 49.9861059,204.725429 C49.6804437,204.725429 49.4747852,204.811434 49.3686388,204.982954 C49.2622468,205.154719 49.2091736,205.471617 49.2091736,205.933647 C49.2091736,206.144993 49.2391501,206.379307 49.2988575,206.636832 C49.3585648,206.894113 49.468151,207.194884 49.6276163,207.537925 C49.7868358,207.881455 50.0060083,208.280692 50.2848882,208.73637 C50.563768,209.192047 50.9153778,209.723712 51.3407003,210.330875 C51.7122125,210.872557 51.9977265,211.374169 52.1972423,211.836199 C52.3962667,212.298718 52.538778,212.721167 52.6252676,213.103789 C52.7115115,213.487145 52.7613904,213.820413 52.7746587,214.104081 C52.7876813,214.388238 52.7945612,214.616199 52.7945612,214.787476 C52.7945612,214.972679 52.7613904,215.210413 52.695049,215.500678 C52.6284618,215.791432 52.502413,216.081942 52.3166569,216.371963 C52.1304094,216.662717 51.8584094,216.910469 51.4999198,217.114974 C51.1414302,217.319724 50.6765485,217.421854 50.1055205,217.421854 C49.5209785,217.421854 49.0430743,217.329497 48.6713164,217.144783 C48.2995584,216.959824 48.0042161,216.748477 47.7850435,216.510743 C47.565871,216.273009 47.4130399,216.038695 47.326796,215.807558 C47.2403064,215.57691 47.1973073,215.408321 47.1973073,215.30277 C47.1973073,215.117811 47.2403064,214.939449 47.326796,214.767685 C47.4130399,214.596409 47.6088701,214.51016 47.9145322,214.51016 C48.0737518,214.51016 48.1934121,214.533371 48.2730219,214.579794 C48.3528773,214.625973 48.422413,214.691942 48.4821203,214.777702 C48.5420734,214.863707 48.6047292,214.962661 48.6713164,215.074809 C48.7376578,215.187201 48.8307816,215.30277 48.9501962,215.421515 C49.2025395,215.685637 49.4084437,215.870596 49.5676632,215.975902 C49.7271285,216.081942 49.9064961,216.134473 50.1055205,216.134473 C50.2116668,216.134473 50.3445955,216.117859 50.503815,216.085118 C50.6632802,216.052134 50.8126714,215.98592 50.9522341,215.886721 C51.0915512,215.787767 51.2109659,215.642635 51.3107238,215.451079 C51.410236,215.260012 51.4601149,215.01226 51.4601149,214.708312 C51.4601149,214.418047 51.4301384,214.143663 51.3704311,213.886382 C51.3107238,213.628857 51.204086,213.341524 51.0517463,213.024626 C50.8989153,212.707729 50.6932567,212.334879 50.4342793,211.905589 C50.1753019,211.476544 49.8467888,210.95172 49.4482486,210.330875 C49.089759,209.763294 48.7939252,209.271211 48.5619758,208.855359 C48.3292893,208.439263 48.1467274,208.062993 48.0140444,207.726305 C47.8811158,207.389616 47.7882378,207.076139 47.7351646,206.785385 C47.6820914,206.49512 47.6555548,206.191172 47.6555548,205.874274 C47.6555548,205.504846 47.7184564,205.171089 47.8447509,204.873983 C47.9707996,204.576876 48.1366533,204.322772 48.3428033,204.111425 C48.5484618,203.900323 48.7809026,203.738331 49.03988,203.625939 C49.2988575,203.514035 49.5543949,203.457839 49.8067382,203.457839" id="Fill-86" fill="#353435"></path>
                    <path d="M56.499437,212.212714 C56.5657785,212.225908 56.63212,212.232504 56.6987071,212.232504 C56.7650486,212.245698 56.8412184,212.252295 56.927708,212.252295 L57.2564668,212.252295 C57.3623675,212.252295 57.5083187,212.249119 57.6945662,212.242278 C57.8803223,212.235925 58.046176,212.225908 58.1926186,212.212714 C58.1658363,211.763877 58.1093232,211.229036 58.023325,210.608191 C57.9368354,209.987834 57.8405174,209.32081 57.7343711,208.607607 C57.6677839,208.198353 57.6080766,207.805468 57.5550034,207.429198 C57.5019303,207.052928 57.4621254,206.739451 57.4355888,206.488279 C57.4220748,206.409115 57.3822699,206.362937 57.3161742,206.349743 C57.249587,206.336549 57.2097821,206.382728 57.1965138,206.488279 C57.0635852,207.346858 56.9441706,208.13898 56.8380242,208.865132 C56.7982193,209.18203 56.7549745,209.499172 56.7085355,209.815825 C56.6618508,210.132722 56.6188517,210.43667 56.5790468,210.72718 C56.5392419,211.017446 56.5026313,211.281568 56.4694605,211.519302 C56.4362898,211.757036 56.4129474,211.942239 56.3999248,212.073934 L56.499437,212.212714 Z M54.3283512,216.708896 C54.3283512,216.656365 54.3512022,216.454791 54.3978869,216.104909 C54.4443259,215.755027 54.5074732,215.309367 54.5870829,214.767685 C54.6669384,214.226491 54.7563765,213.612487 54.8561344,212.925672 C54.9556466,212.239101 55.061793,211.53274 55.1748192,210.806343 C55.2873539,210.080191 55.3969402,209.357215 55.5033322,208.637416 C55.6094786,207.91786 55.7026023,207.260609 55.7824578,206.66664 C55.8883584,206.006458 55.9746023,205.455246 56.0411895,205.012518 C56.107531,204.570523 56.1473359,204.296628 56.1608499,204.190588 C56.2006547,203.860497 56.3301435,203.649395 56.549316,203.556793 C56.7682428,203.464436 56.9704614,203.424854 57.1567089,203.438048 C57.342465,203.451242 57.5218327,203.497421 57.6945662,203.576584 C57.867054,203.655992 57.9864687,203.820915 58.0530558,204.071843 C58.0795924,204.164445 58.1528137,204.467904 58.2722284,204.982954 C58.391643,205.498004 58.5341543,206.138641 58.7004994,206.90413 C58.866353,207.670109 59.0457207,208.508653 59.2381109,209.419764 C59.4307469,210.330875 59.6167487,211.225616 59.7961164,212.103742 C59.9752383,212.981868 60.1347035,213.790604 60.2740206,214.52995 C60.4135834,215.269785 60.5096556,215.850805 60.5629745,216.273009 C60.5629745,216.484355 60.5162898,216.652944 60.4234117,216.778286 C60.330288,216.903872 60.2307758,216.992809 60.1246294,217.045584 C60.1113612,217.045584 60.0948986,217.049005 60.0749962,217.055357 C60.0548481,217.062443 60.0381398,217.065375 60.0251173,217.065375 C59.9585301,217.092007 59.8757261,217.102025 59.7759682,217.094939 C59.676456,217.088586 59.5769438,217.059022 59.4774316,217.006003 C59.3776737,216.953227 59.2879899,216.867467 59.2083801,216.748477 C59.1287704,216.629488 59.0754515,216.471162 59.0489149,216.273009 C59.00911,216.048713 58.9661109,215.774818 58.9196719,215.451079 C58.8729872,215.127829 58.8231082,214.820705 58.7702808,214.52995 C58.7169619,214.186909 58.6572546,213.843624 58.5909131,213.500095 C58.5113033,213.500095 58.4115454,213.493498 58.2921308,213.480059 C58.1857388,213.480059 58.0660784,213.477127 57.9336412,213.470286 C57.8007126,213.463934 57.6547613,213.460269 57.4952961,213.460269 C57.2827577,213.460269 57.0601453,213.467354 56.8279501,213.480059 C56.5955093,213.493498 56.3665084,213.526727 56.1409474,213.579258 C56.0876285,213.883206 56.0379953,214.200103 55.9915563,214.52995 C55.9448715,214.860286 55.9050667,215.177184 55.8718959,215.480887 C55.8387252,215.784591 55.8121886,216.058486 55.7922862,216.302817 C55.7723837,216.547149 55.7556755,216.728687 55.7424072,216.847676 C55.7158706,217.059022 55.6460893,217.217349 55.5333088,217.3229 C55.4202826,217.428451 55.2310865,217.481227 54.9657207,217.481227 C54.7131317,217.481227 54.5440838,217.409149 54.4575942,217.263528 C54.3711046,217.118395 54.3283512,216.933436 54.3283512,216.708896 L54.3283512,216.708896 Z" id="Fill-88" fill="#353435"></path>
                    <path d="M63.7896022,216.075027 C64.2009192,216.075027 64.5864369,216.081869 64.9449265,216.094818 C65.2500972,216.108257 65.5523194,216.11803 65.8511017,216.124627 C66.149884,216.131224 66.3722508,216.1344 66.5184477,216.1344 C66.7575227,216.147838 66.9034739,216.220649 66.9567928,216.352343 C67.0096202,216.484527 67.0364025,216.61671 67.0364025,216.748649 C67.0364025,216.894026 67.0029861,217.039158 66.9368903,217.184291 C66.8703032,217.329668 66.6710331,217.409076 66.33908,217.422025 L62.7735949,217.402234 C62.6008614,217.402234 62.4748126,217.359476 62.3952029,217.273228 C62.3155931,217.187712 62.2689084,216.986138 62.2558858,216.669241 L62.2558858,214.72803 C62.2558858,213.935908 62.2588343,213.094187 62.2657142,212.202623 C62.2723483,211.311303 62.2789825,210.407033 62.2856166,209.489081 C62.2922508,208.571373 62.2988849,207.733073 62.3055191,206.973691 C62.3121532,206.214554 62.3187874,205.573918 62.3254215,205.052271 C62.3320556,204.530868 62.3354956,204.217391 62.3354956,204.111352 C62.3485182,203.807892 62.4450818,203.622934 62.6242038,203.556964 C62.8035715,203.490751 62.972865,203.457766 63.1323303,203.457766 C63.21194,203.457766 63.2981839,203.467539 63.391062,203.48733 C63.48394,203.507121 63.5669897,203.546947 63.640211,203.606319 C63.7129409,203.665692 63.7726482,203.761714 63.8195787,203.893653 C63.865772,204.025836 63.8822345,204.197601 63.8692119,204.408458 C63.8559436,204.580223 63.8424296,204.973108 63.829407,205.587112 C63.815893,206.201116 63.8026248,206.927513 63.7896022,207.765813 C63.7760882,208.604602 63.7628199,209.489081 63.7497973,210.419983 C63.7362833,211.350884 63.723015,212.219482 63.7097467,213.024797 C63.6964784,213.830113 63.68665,214.503734 63.6800159,215.044927 C63.673136,215.586609 63.6699418,215.890313 63.6699418,215.956283 C63.6699418,216.035446 63.7097467,216.075027 63.7896022,216.075027" id="Fill-90" fill="#353435"></path>
                    <path d="M69.0481214,203.675685 C69.4864665,203.636103 69.9874674,203.596522 70.552107,203.55694 C71.1162551,203.517358 71.63077,203.497567 72.0956517,203.497567 C72.6136065,203.497567 72.9851187,203.530308 73.2111711,203.596522 C73.4765369,203.675685 73.6360022,203.784412 73.689321,203.923192 C73.7421485,204.061972 73.7556625,204.184138 73.7291259,204.289689 C73.7023436,204.395484 73.6495162,204.527179 73.5696607,204.68575 C73.4900509,204.844321 73.297415,204.956469 72.9919986,205.022683 C72.832779,205.062264 72.5902641,205.095493 72.2649453,205.121637 C71.9396264,205.148024 71.6177474,205.174657 71.2990627,205.2008 C70.9135451,205.227432 70.5086164,205.25382 70.0837854,205.279963 L70.1235902,209.796181 C70.8275469,209.796181 71.4216715,209.799357 71.9064556,209.805954 C72.390994,209.812795 72.679948,209.82941 72.7730717,209.855553 C72.8258992,209.881941 72.8991205,209.911749 72.9919986,209.944734 C73.0848766,209.977719 73.1713662,210.023897 73.250976,210.083514 C73.3308314,210.142887 73.393733,210.22205 73.440172,210.321004 C73.486611,210.420202 73.5030735,210.548721 73.4900509,210.707292 C73.4765369,210.852669 73.4303436,210.971414 73.3507339,211.063771 C73.2711241,211.156372 73.1814403,211.228939 73.0816824,211.281714 C72.9821702,211.334734 72.8890464,211.370651 72.8028025,211.390442 C72.7163129,211.410232 72.6600455,211.42025 72.6335089,211.42025 L71.3985749,211.42025 C71.0929127,211.42025 70.8140329,211.430023 70.5619353,211.450058 C70.3095921,211.469849 70.1835433,211.493061 70.1835433,211.519448 L70.1835433,213.757766 C70.1835433,214.404755 70.1899317,215.144101 70.2034457,215.976049 C70.4157384,215.963099 70.6715216,215.949661 70.9703039,215.936467 C71.2690862,215.923518 71.5745026,215.9135 71.8865532,215.906659 C72.1983581,215.900062 72.5040202,215.896886 72.8028025,215.896886 C73.1015848,215.896886 73.3507339,215.903727 73.5497583,215.916676 C73.7620509,215.92987 73.9114421,216.009278 73.9981774,216.154166 C74.0841756,216.299788 74.1141521,216.484502 74.0876155,216.709042 C74.0608332,216.920145 73.9780293,217.062345 73.8387122,217.134667 C73.6991494,217.207478 73.4900509,217.257077 73.2111711,217.283221 C73.0517059,217.296659 72.7929742,217.306432 72.4344846,217.312785 C72.0757492,217.31987 71.6973572,217.326223 71.2990627,217.33282 C70.9007682,217.339661 70.5322045,217.346014 70.1936173,217.352611 C69.8547845,217.359452 69.632172,217.362628 69.5262714,217.362628 C69.3400238,217.362628 69.1874385,217.31987 69.0680238,217.233621 C68.9486092,217.148106 68.8753879,216.966323 68.8488513,216.689252 C68.8488513,216.609844 68.8422172,216.378951 68.8289489,215.99584 C68.8156806,215.612973 68.8024123,215.134084 68.789144,214.559905 C68.7758757,213.985239 68.7594132,213.345091 68.7395107,212.638485 C68.7196083,211.932124 68.7026544,211.212324 68.6896318,210.479575 C68.6761178,209.746581 68.6596553,209.027026 68.6397528,208.32042 C68.6198504,207.614059 68.6065821,206.973667 68.599948,206.399 C68.5930681,205.824822 68.5866797,205.349353 68.5800455,204.973083 C68.5731657,204.596813 68.5699715,204.368852 68.5699715,204.289689 C68.582994,204.025811 68.6397528,203.860644 68.7395107,203.79443 C68.8390229,203.728705 68.9417294,203.689123 69.0481214,203.675685" id="Fill-92" fill="#353435"></path>
                    <path d="M85.2220965,214.193384 L85.2220965,213.113929 L85.2220965,211.202526 C85.2220965,210.476374 85.2186565,209.706975 85.2120224,208.894819 C85.2053883,208.082662 85.202194,207.330122 85.202194,206.63671 L85.202194,204.883878 L85.202194,204.071721 C85.202194,203.847425 85.2419989,203.685434 85.3218544,203.58648 C85.4014641,203.487525 85.5540495,203.437926 85.7798562,203.437926 C86.0852726,203.437926 86.2943711,203.533948 86.4073973,203.725015 C86.5199321,203.916571 86.5766909,204.250083 86.5766909,204.725551 C86.5766909,205.015817 86.583325,205.392331 86.5965933,205.854361 C86.6096159,206.31688 86.6231299,206.834862 86.6363982,207.409285 C86.6494208,207.983708 86.6629348,208.591115 86.6762031,209.231507 C86.6892257,209.872143 86.6992997,210.502762 86.7061796,211.123363 C86.712568,211.744209 86.712568,212.338178 86.7061796,212.905759 C86.6992997,213.473829 86.6828372,213.968844 86.6563006,214.391537 C86.5897135,214.774648 86.487007,215.147497 86.34769,215.510574 C86.2081272,215.873894 86.0154912,216.193968 85.7697821,216.471039 C85.524073,216.7486 85.2287306,216.97314 84.8835093,217.14466 C84.5380423,217.316425 84.1267252,217.402186 83.6485752,217.402186 C83.157157,217.402186 82.7323259,217.313005 82.3738363,217.134643 C82.015101,216.956525 81.7195129,216.712439 81.4873178,216.401894 C81.254877,216.091837 81.0821435,215.735358 80.969363,215.332212 C80.8563368,214.929798 80.7934352,214.503929 80.7801669,214.054848 C80.7668986,213.750901 80.7568246,213.321855 80.7504361,212.767223 C80.7433106,212.212836 80.7369221,211.608605 80.730288,210.954775 C80.7234081,210.301189 80.7135798,209.624636 80.7005572,208.924627 C80.6870432,208.224862 80.6772148,207.577629 80.6705807,206.983416 C80.6637008,206.389447 80.6573124,205.874152 80.6506782,205.43851 C80.6437984,205.002867 80.6406042,204.725551 80.6406042,204.606562 C80.6406042,204.303103 80.7005572,204.10153 80.8199718,204.002576 C80.9396322,203.903377 81.1187541,203.854022 81.3578291,203.854022 C81.6099266,203.854022 81.7792202,203.920236 81.8657098,204.05193 C81.9519537,204.184114 81.9951986,204.362475 81.9951986,204.586771 C81.9951986,204.679373 81.9983928,204.950092 82.0052726,205.398928 C82.0119068,205.848009 82.0182952,206.389447 82.0251751,207.022997 C82.0318092,207.656792 82.0416376,208.340187 82.0549059,209.07318 C82.0681742,209.805929 82.0814425,210.505938 82.0947107,211.172718 C82.107979,211.839742 82.1178074,212.427359 82.1246873,212.935812 C82.1313214,213.444265 82.1411498,213.790726 82.1546638,213.975441 C82.1812004,214.543511 82.3340314,214.98233 82.6126656,215.29263 C82.8915454,215.603175 83.2303783,215.758081 83.6286728,215.758081 C83.8279429,215.758081 84.0200874,215.73829 84.206335,215.698709 C84.3920911,215.659127 84.5579447,215.586561 84.7043874,215.48101 C84.8500929,215.375214 84.9697532,215.220308 85.062877,215.015314 C85.1555093,214.810809 85.2088282,214.536914 85.2220965,214.193384" id="Fill-94" fill="#353435"></path>
                    <path d="M93.8866847,213.916117 C93.8599024,213.255934 93.84,212.566188 93.8269774,211.846144 C93.8134634,211.126588 93.7970009,210.423403 93.7770985,209.736833 C93.757196,209.050262 93.7404878,208.389835 93.7274652,207.75604 C93.7139512,207.122 93.7006829,206.554419 93.6874146,206.052319 C93.6741463,205.550951 93.6640723,205.131434 93.6576838,204.794746 C93.650804,204.458058 93.6476098,204.237182 93.6476098,204.131143 C93.6476098,203.867265 93.7105113,203.689147 93.8368058,203.596546 C93.9631003,203.504189 94.1522963,203.457766 94.4046396,203.457766 C94.6700054,203.457766 94.8427389,203.520559 94.9223487,203.645901 C95.0022042,203.771487 95.0550316,204.025836 95.0818139,204.408458 C95.0818139,204.514498 95.0884481,204.762006 95.1017164,205.151225 C95.1149846,205.540933 95.1282529,206.019823 95.1415212,206.587404 C95.1547895,207.155229 95.1680578,207.789025 95.1815718,208.488789 C95.1945944,209.188798 95.2078627,209.89858 95.2213767,210.618135 C95.2343993,211.337935 95.2442276,212.044296 95.2511075,212.737464 C95.2577416,213.430876 95.26757,214.058074 95.281084,214.619302 C95.2941066,215.180775 95.3009864,215.645982 95.3009864,216.015655 L95.3009864,216.709067 C95.2874724,217.012771 95.2113026,217.213855 95.0719855,217.312809 C94.9324228,217.412008 94.7697633,217.461607 94.5837615,217.461607 C94.3977597,217.461607 94.2085637,217.412008 94.0161734,217.312809 C93.8235375,217.213855 93.6542439,216.973189 93.5082927,216.589833 C93.4684878,216.471088 93.3886323,216.223581 93.2692177,215.847066 C93.1495574,215.470796 93.0068004,215.015363 92.8409467,214.480767 C92.6746016,213.945681 92.4954797,213.361241 92.3030894,212.72769 C92.1104535,212.093651 91.9212575,211.466942 91.7355014,210.846096 C91.5890587,210.370383 91.4465474,209.89858 91.3072304,209.429708 C91.1676676,208.961081 91.0381789,208.538388 90.9187642,208.161874 C90.7993496,207.785604 90.6961518,207.465774 90.6101536,207.201408 C90.5234182,206.93753 90.4607624,206.772363 90.4207118,206.706149 C90.3278338,206.653373 90.2614923,206.666567 90.2214417,206.74573 L90.2813948,216.887184 C90.2678808,217.045755 90.2116134,217.177938 90.1121012,217.283245 C90.0123433,217.389285 89.8430497,217.441816 89.6039747,217.441816 C89.378168,217.441816 89.2221427,217.379267 89.1361445,217.253437 C89.0494092,217.128095 89.0066558,216.926766 89.0066558,216.64945 L88.9867534,204.07177 C88.9867534,203.847474 89.0629232,203.702097 89.2157543,203.636128 C89.3680939,203.570158 89.5771924,203.537173 89.8430497,203.537173 C90.0951472,203.537173 90.3278338,203.599722 90.5403722,203.725064 C90.7526649,203.850895 90.9317868,204.144581 91.0779837,204.606367 C91.1177886,204.7256 91.1806902,204.933282 91.2674255,205.230388 C91.3534237,205.52774 91.4566215,205.881042 91.5760361,206.290297 C91.6956965,206.699796 91.8281337,207.155229 91.9745763,207.656841 C92.1205276,208.158942 92.2664788,208.667151 92.4126757,209.181957 C92.5586269,209.697007 92.7045781,210.20888 92.8510208,210.717089 C92.9967263,211.225542 93.1296549,211.691238 93.2493153,212.113442 C93.3817525,212.575961 93.5048528,212.962248 93.617879,213.272305 C93.7304137,213.58285 93.8001951,213.790531 93.8269774,213.896326 C93.84,213.90952 93.8599024,213.916117 93.8866847,213.916117" id="Fill-96" fill="#353435"></path>
                    <path d="M100.499602,204.903791 C100.247259,204.903791 100.011623,204.982954 99.7924509,205.141525 C99.5732784,205.299852 99.3806425,205.606976 99.2147888,206.062409 C99.0486894,206.517843 98.9192007,207.155303 98.8263227,207.973812 C98.7334446,208.79281 98.6870056,209.862248 98.6870056,211.182613 C98.6870056,212.278927 98.7634211,213.137018 98.9160065,213.75762 C99.0685919,214.378221 99.2479595,214.843916 99.4538638,215.153972 C99.659768,215.464517 99.8622323,215.659249 100.061502,215.738412 C100.260527,215.817576 100.406724,215.857157 100.499602,215.857157 C100.605748,215.857157 100.765213,215.811223 100.977752,215.718622 C101.190044,215.626264 101.399143,215.38511 101.605293,214.995646 C101.810951,214.606182 101.993513,214.011968 102.152979,213.213005 C102.312198,212.414043 102.392053,211.3082 102.392053,209.895232 C102.392053,208.983877 102.3321,208.214967 102.212686,207.587525 C102.093271,206.960571 101.94044,206.448697 101.754438,206.052392 C101.568436,205.656331 101.362778,205.368998 101.136971,205.19088 C100.911165,205.012518 100.698872,204.916985 100.499602,204.903791 M100.40009,203.438048 C100.984386,203.451242 101.488827,203.659168 101.913904,204.06207 C102.338735,204.464728 102.69059,204.982954 102.969716,205.616749 C103.248595,206.250789 103.454254,206.95715 103.587183,207.736322 C103.71962,208.515494 103.786207,209.287825 103.786207,210.053559 C103.786207,210.595241 103.766305,211.149629 103.7265,211.717454 C103.686695,212.28528 103.617159,212.843332 103.517401,213.391123 C103.417643,213.939158 103.28496,214.457873 103.119107,214.946046 C102.952762,215.434709 102.747103,215.863754 102.501394,216.233427 C102.255685,216.603345 101.963537,216.897031 101.625195,217.114974 C101.286362,217.332673 100.891262,217.441645 100.439894,217.441645 C99.8155476,217.441645 99.3010327,217.243737 98.8961041,216.847676 C98.4909297,216.451371 98.1690508,215.943406 97.9299758,215.322561 C97.6911465,214.70196 97.5248014,214.008548 97.4321691,213.24257 C97.3390453,212.476836 97.2926063,211.717454 97.2926063,210.964914 C97.2926063,210.159599 97.329217,209.314213 97.4021926,208.42949 C97.4749225,207.545011 97.6213651,206.73261 97.8405377,205.993019 C98.0594645,205.253918 98.374955,204.64309 98.7865178,204.161024 C99.1980806,203.678959 99.7359379,203.438048 100.40009,203.438048" id="Fill-98" fill="#353435"></path>
                    <path d="M105.737973,219.343177 C105.578753,219.1978 105.498898,219.085652 105.498898,219.006488 C105.498898,218.913887 105.575313,218.791721 105.727899,218.639992 C105.88073,218.488018 105.963534,218.313321 105.977048,218.115168 L105.977048,217.580327 C105.605044,217.501164 105.419288,217.31645 105.419288,217.02594 L105.419288,215.936467 C105.419288,215.712171 105.455899,215.557021 105.528874,215.470772 C105.601604,215.385256 105.797926,215.342254 106.116611,215.342254 C106.55471,215.32906 106.856687,215.424838 107.022786,215.629343 C107.18864,215.834337 107.271935,216.181043 107.271935,216.669216 C107.244907,217.052328 107.222056,217.362628 107.201908,217.600118 C107.182005,217.837852 107.148835,218.045778 107.102396,218.22414 C107.055711,218.402257 106.986175,218.564005 106.893297,218.709382 C106.800173,218.854514 106.667491,219.012841 106.495003,219.18485 C106.34856,219.316789 106.212683,219.402549 106.086634,219.442131 C105.96034,219.481713 105.844119,219.448972 105.737973,219.343177" id="Fill-100" fill="#353435"></path>
                    <path d="M117.031944,213.935933 C117.071749,213.354913 117.131702,212.727715 117.211311,212.054094 C117.290921,211.380717 117.377165,210.697323 117.470289,210.004155 C117.562921,209.310743 117.656045,208.634435 117.748923,207.974008 C117.841801,207.31358 117.924851,206.709594 117.998072,206.161559 C118.071048,205.613524 118.133949,205.148073 118.187268,204.765206 C118.240095,204.382095 118.273512,204.118217 118.28678,203.97284 C118.300048,203.682331 118.386538,203.520583 118.545758,203.487354 C118.705223,203.454858 118.864442,203.437999 119.023907,203.437999 C119.222932,203.437999 119.389031,203.487354 119.52196,203.586553 C119.654397,203.685507 119.720984,203.9401 119.720984,204.34911 C119.707716,204.481294 119.677739,204.745416 119.631546,205.141476 C119.584861,205.537537 119.52196,206.016426 119.44235,206.577411 C119.362495,207.138884 119.272811,207.762661 119.173299,208.449232 C119.073786,209.135802 118.970589,209.829214 118.864442,210.528979 C118.75805,211.228987 118.651904,211.918979 118.545758,212.598708 C118.439365,213.27917 118.343293,213.896351 118.257049,214.450738 C118.17056,215.00537 118.097584,215.474242 118.037877,215.857109 C117.978169,216.240464 117.934925,216.484551 117.908388,216.589858 C117.828778,216.973213 117.705924,217.204106 117.539824,217.28327 C117.373725,217.362433 117.151604,217.402259 116.872724,217.402259 C116.766086,217.402259 116.666574,217.399083 116.573942,217.392241 C116.480818,217.385644 116.394574,217.352415 116.314964,217.293043 C116.235109,217.23367 116.162133,217.141557 116.095792,217.015727 C116.029205,216.890629 115.969497,216.715688 115.916424,216.490904 C115.876619,216.345771 115.813472,216.065279 115.727228,215.649183 C115.640739,215.233331 115.538032,214.73514 115.418618,214.153876 C115.298957,213.572856 115.169468,212.932709 115.030151,212.232456 C114.890834,211.532691 114.747832,210.823153 114.60188,210.103109 C114.455683,209.383554 114.316121,208.680369 114.183683,207.993798 C114.050755,207.307228 113.934534,206.689803 113.835022,206.141768 C113.735264,205.593733 113.655655,205.134879 113.595947,204.765206 C113.53624,204.395533 113.506263,204.170749 113.506263,204.091585 C113.506263,203.853851 113.552702,203.705298 113.645826,203.645925 C113.738459,203.586553 113.871387,203.556989 114.044121,203.556989 C114.190072,203.556989 114.333075,203.593394 114.472392,203.665716 C114.611709,203.738527 114.747832,203.88708 114.88076,204.111376 C114.920565,204.190539 114.976833,204.388692 115.050054,204.705834 C115.122784,205.022731 115.205833,205.418792 115.298957,205.894016 C115.391835,206.369485 115.494787,206.897729 115.607814,207.478504 C115.720594,208.059768 115.829935,208.64714 115.936572,209.241598 C116.188424,210.641371 116.46755,212.206068 116.772966,213.935933 C116.826039,213.988708 116.872724,214.015096 116.912529,214.015096 C116.939066,214.015096 116.97887,213.988708 117.031944,213.935933" id="Fill-102" fill="#353435"></path>
                    <path d="M126.015192,214.193384 L126.015192,213.113929 L126.015192,211.202526 C126.015192,210.476374 126.011752,209.706975 126.005118,208.894819 C125.998484,208.082662 125.99529,207.330122 125.99529,206.63671 L125.99529,204.883878 L125.99529,204.071721 C125.99529,203.847425 126.035094,203.685434 126.11495,203.58648 C126.19456,203.487525 126.347145,203.437926 126.572952,203.437926 C126.878368,203.437926 127.087467,203.533948 127.200493,203.725015 C127.313028,203.916571 127.369786,204.250083 127.369786,204.725551 C127.369786,205.015817 127.376421,205.392331 127.389689,205.854361 C127.402711,206.31688 127.416225,206.834862 127.429494,207.409285 C127.442516,207.983708 127.45603,208.591115 127.469299,209.231507 C127.482321,209.872143 127.492395,210.502762 127.499275,211.123363 C127.505664,211.744209 127.505664,212.338178 127.499275,212.905759 C127.492395,213.473829 127.475933,213.968844 127.449396,214.391537 C127.382809,214.774648 127.280103,215.147497 127.140786,215.510574 C127.001223,215.873894 126.808587,216.193968 126.562878,216.471039 C126.317169,216.7486 126.021826,216.97314 125.676605,217.14466 C125.331138,217.316425 124.919821,217.402186 124.441671,217.402186 C123.950253,217.402186 123.525421,217.313005 123.166932,217.134643 C122.808197,216.956525 122.512608,216.712439 122.280413,216.401894 C122.047973,216.091837 121.875239,215.735358 121.762459,215.332212 C121.649432,214.929798 121.586531,214.503929 121.573263,214.054848 C121.559994,213.750901 121.54992,213.321855 121.543532,212.767223 C121.536406,212.212836 121.530018,211.608605 121.523384,210.954775 C121.516504,210.301189 121.506675,209.624636 121.493653,208.924627 C121.480139,208.224862 121.47031,207.577629 121.463676,206.983416 C121.456796,206.389447 121.450408,205.874152 121.443774,205.43851 C121.436894,205.002867 121.4337,204.725551 121.4337,204.606562 C121.4337,204.303103 121.493653,204.10153 121.613067,204.002576 C121.732728,203.903377 121.91185,203.854022 122.150925,203.854022 C122.403022,203.854022 122.572316,203.920236 122.658805,204.05193 C122.745049,204.184114 122.788294,204.362475 122.788294,204.586771 C122.788294,204.679373 122.791488,204.950092 122.798368,205.398928 C122.805002,205.848009 122.811391,206.389447 122.818271,207.022997 C122.824905,207.656792 122.834733,208.340187 122.848001,209.07318 C122.86127,209.805929 122.874538,210.505938 122.887806,211.172718 C122.901075,211.839742 122.910903,212.427359 122.917783,212.935812 C122.924417,213.444265 122.934245,213.790726 122.947759,213.975441 C122.974296,214.543511 123.127127,214.98233 123.405761,215.29263 C123.684641,215.603175 124.023474,215.758081 124.421768,215.758081 C124.621038,215.758081 124.813183,215.73829 124.999431,215.698709 C125.185187,215.659127 125.35104,215.586561 125.497483,215.48101 C125.643188,215.375214 125.762849,215.220308 125.855973,215.015314 C125.948605,214.810809 126.001924,214.536914 126.015192,214.193384" id="Fill-104" fill="#353435"></path>
                    <path d="M130.158069,203.675685 C130.596414,203.636103 131.097415,203.596522 131.662055,203.55694 C132.226203,203.517358 132.740718,203.497567 133.205599,203.497567 C133.723554,203.497567 134.095066,203.530308 134.321119,203.596522 C134.586485,203.675685 134.74595,203.784412 134.799269,203.923192 C134.852096,204.061972 134.86561,204.184138 134.839074,204.289689 C134.812291,204.395484 134.759464,204.527179 134.679608,204.68575 C134.599999,204.844321 134.407363,204.956469 134.101946,205.022683 C133.942727,205.062264 133.700212,205.095493 133.374893,205.121637 C133.049574,205.148024 132.727695,205.174657 132.40901,205.2008 C132.023493,205.227432 131.618564,205.25382 131.193733,205.279963 L131.233538,209.796181 C131.937494,209.796181 132.531619,209.799357 133.016403,209.805954 C133.500942,209.812795 133.789896,209.82941 133.883019,209.855553 C133.935847,209.881941 134.009068,209.911749 134.101946,209.944734 C134.194824,209.977719 134.281314,210.023897 134.360924,210.083514 C134.440779,210.142887 134.503681,210.22205 134.55012,210.321004 C134.596559,210.420202 134.613021,210.548721 134.599999,210.707292 C134.586485,210.852669 134.540291,210.971414 134.460681,211.063771 C134.381072,211.156372 134.291388,211.228939 134.19163,211.281714 C134.092118,211.334734 133.998994,211.370651 133.91275,211.390442 C133.826261,211.410232 133.769993,211.42025 133.743457,211.42025 L132.508522,211.42025 C132.20286,211.42025 131.92398,211.430023 131.671883,211.450058 C131.41954,211.469849 131.293491,211.493061 131.293491,211.519448 L131.293491,213.757766 C131.293491,214.404755 131.299879,215.144101 131.313393,215.976049 C131.525686,215.963099 131.781469,215.949661 132.080251,215.936467 C132.379034,215.923518 132.68445,215.9135 132.996501,215.906659 C133.308306,215.900062 133.613968,215.896886 133.91275,215.896886 C134.211532,215.896886 134.460681,215.903727 134.659706,215.916676 C134.871999,215.92987 135.02139,216.009278 135.108125,216.154166 C135.194123,216.299788 135.2241,216.484502 135.197563,216.709042 C135.170781,216.920145 135.087977,217.062345 134.94866,217.134667 C134.809097,217.207478 134.599999,217.257077 134.321119,217.283221 C134.161653,217.296659 133.902922,217.306432 133.544432,217.312785 C133.185697,217.31987 132.807305,217.326223 132.40901,217.33282 C132.010716,217.339661 131.642152,217.346014 131.303565,217.352611 C130.964732,217.359452 130.74212,217.362628 130.636219,217.362628 C130.449971,217.362628 130.297386,217.31987 130.177971,217.233621 C130.058557,217.148106 129.985336,216.966323 129.958799,216.689252 C129.958799,216.609844 129.952165,216.378951 129.938896,215.99584 C129.925628,215.612973 129.91236,215.134084 129.899092,214.559905 C129.885823,213.985239 129.869361,213.345091 129.849458,212.638485 C129.829556,211.932124 129.812602,211.212324 129.799579,210.479575 C129.786065,209.746581 129.769603,209.027026 129.7497,208.32042 C129.729798,207.614059 129.71653,206.973667 129.709896,206.399 C129.703016,205.824822 129.696627,205.349353 129.689993,204.973083 C129.683113,204.596813 129.679919,204.368852 129.679919,204.289689 C129.692942,204.025811 129.7497,203.860644 129.849458,203.79443 C129.948971,203.728705 130.051677,203.689123 130.158069,203.675685" id="Fill-106" fill="#353435"></path>
                    <path d="M138.424363,216.075027 C138.83568,216.075027 139.221197,216.081869 139.579687,216.094818 C139.884858,216.108257 140.18708,216.11803 140.485862,216.124627 C140.784645,216.131224 141.007011,216.1344 141.153208,216.1344 C141.392283,216.147838 141.538235,216.220649 141.591553,216.352343 C141.644381,216.484527 141.671163,216.61671 141.671163,216.748649 C141.671163,216.894026 141.637747,217.039158 141.571651,217.184291 C141.505064,217.329668 141.305794,217.409076 140.973841,217.422025 L137.408356,217.402234 C137.235622,217.402234 137.109573,217.359476 137.029964,217.273228 C136.950354,217.187712 136.903669,216.986138 136.890646,216.669241 L136.890646,214.72803 C136.890646,213.935908 136.893595,213.094187 136.900475,212.202623 C136.907109,211.311303 136.913743,210.407033 136.920377,209.489081 C136.927011,208.571373 136.933646,207.733073 136.94028,206.973691 C136.946914,206.214554 136.953548,205.573918 136.960428,205.052271 C136.966816,204.530868 136.970256,204.217391 136.970256,204.111352 C136.983279,203.807892 137.079842,203.622934 137.258964,203.556964 C137.438332,203.490751 137.607626,203.457766 137.767091,203.457766 C137.846701,203.457766 137.932945,203.467539 138.025823,203.48733 C138.118701,203.507121 138.20175,203.546947 138.274972,203.606319 C138.347702,203.665692 138.407409,203.761714 138.454339,203.893653 C138.500533,204.025836 138.516995,204.197601 138.503973,204.408458 C138.490704,204.580223 138.47719,204.973108 138.464168,205.587112 C138.450654,206.201116 138.437385,206.927513 138.424363,207.765813 C138.410849,208.604602 138.39758,209.489081 138.384558,210.419983 C138.371044,211.350884 138.357776,212.219482 138.344507,213.024797 C138.331239,213.830113 138.321411,214.503734 138.314777,215.044927 C138.307897,215.586609 138.304702,215.890313 138.304702,215.956283 C138.304702,216.035446 138.344507,216.075027 138.424363,216.075027" id="Fill-108" fill="#353435"></path>
                    <path d="M146.192629,213.935933 C146.232434,213.354913 146.292387,212.727715 146.371996,212.054094 C146.451606,211.380717 146.53785,210.697323 146.630974,210.004155 C146.723606,209.310743 146.81673,208.634435 146.909608,207.974008 C147.002486,207.31358 147.085536,206.709594 147.158757,206.161559 C147.231733,205.613524 147.294634,205.148073 147.347953,204.765206 C147.40078,204.382095 147.434197,204.118217 147.447465,203.97284 C147.460734,203.682331 147.547223,203.520583 147.706443,203.487354 C147.865908,203.454858 148.025127,203.437999 148.184593,203.437999 C148.383617,203.437999 148.549716,203.487354 148.682645,203.586553 C148.815082,203.685507 148.881669,203.9401 148.881669,204.34911 C148.868401,204.481294 148.838425,204.745416 148.792231,205.141476 C148.745547,205.537537 148.682645,206.016426 148.603035,206.577411 C148.52318,207.138884 148.433496,207.762661 148.333984,208.449232 C148.234472,209.135802 148.131274,209.829214 148.025127,210.528979 C147.918735,211.228987 147.812589,211.918979 147.706443,212.598708 C147.600051,213.27917 147.503978,213.896351 147.417734,214.450738 C147.331245,215.00537 147.258269,215.474242 147.198562,215.857109 C147.138855,216.240464 147.09561,216.484551 147.069073,216.589858 C146.989463,216.973213 146.866609,217.204106 146.700509,217.28327 C146.53441,217.362433 146.312289,217.402259 146.033409,217.402259 C145.926771,217.402259 145.827259,217.399083 145.734627,217.392241 C145.641503,217.385644 145.555259,217.352415 145.47565,217.293043 C145.395794,217.23367 145.322818,217.141557 145.256477,217.015727 C145.18989,216.890629 145.130182,216.715688 145.077109,216.490904 C145.037304,216.345771 144.974157,216.065279 144.887913,215.649183 C144.801424,215.233331 144.698717,214.73514 144.579303,214.153876 C144.459642,213.572856 144.330154,212.932709 144.190836,212.232456 C144.051519,211.532691 143.908517,210.823153 143.762565,210.103109 C143.616369,209.383554 143.476806,208.680369 143.344369,207.993798 C143.21144,207.307228 143.09522,206.689803 142.995707,206.141768 C142.895949,205.593733 142.81634,205.134879 142.756632,204.765206 C142.696925,204.395533 142.666949,204.170749 142.666949,204.091585 C142.666949,203.853851 142.713388,203.705298 142.806511,203.645925 C142.899144,203.586553 143.032072,203.556989 143.204806,203.556989 C143.350757,203.556989 143.49376,203.593394 143.633077,203.665716 C143.772394,203.738527 143.908517,203.88708 144.041445,204.111376 C144.08125,204.190539 144.137518,204.388692 144.210739,204.705834 C144.283469,205.022731 144.366519,205.418792 144.459642,205.894016 C144.55252,206.369485 144.655472,206.897729 144.768499,207.478504 C144.881279,208.059768 144.99062,208.64714 145.097257,209.241598 C145.349109,210.641371 145.628235,212.206068 145.933651,213.935933 C145.986724,213.988708 146.033409,214.015096 146.073214,214.015096 C146.099751,214.015096 146.139556,213.988708 146.192629,213.935933" id="Fill-110" fill="#353435"></path>
                    <path d="M151.112315,203.675685 C151.55066,203.636103 152.051661,203.596522 152.616301,203.55694 C153.180449,203.517358 153.694964,203.497567 154.159845,203.497567 C154.6778,203.497567 155.049312,203.530308 155.275365,203.596522 C155.540731,203.675685 155.700196,203.784412 155.753515,203.923192 C155.806342,204.061972 155.819856,204.184138 155.79332,204.289689 C155.766537,204.395484 155.71371,204.527179 155.633854,204.68575 C155.554245,204.844321 155.361609,204.956469 155.056192,205.022683 C154.896973,205.062264 154.654458,205.095493 154.329139,205.121637 C154.00382,205.148024 153.681941,205.174657 153.363256,205.2008 C152.977739,205.227432 152.57281,205.25382 152.147979,205.279963 L152.187784,209.796181 C152.891741,209.796181 153.485865,209.799357 153.970649,209.805954 C154.455188,209.812795 154.744142,209.82941 154.837265,209.855553 C154.890093,209.881941 154.963314,209.911749 155.056192,209.944734 C155.14907,209.977719 155.23556,210.023897 155.31517,210.083514 C155.395025,210.142887 155.457927,210.22205 155.504366,210.321004 C155.550805,210.420202 155.567267,210.548721 155.554245,210.707292 C155.540731,210.852669 155.494537,210.971414 155.414928,211.063771 C155.335318,211.156372 155.245634,211.228939 155.145876,211.281714 C155.046364,211.334734 154.95324,211.370651 154.866996,211.390442 C154.780507,211.410232 154.724239,211.42025 154.697703,211.42025 L153.462769,211.42025 C153.157106,211.42025 152.878227,211.430023 152.626129,211.450058 C152.373786,211.469849 152.247737,211.493061 152.247737,211.519448 L152.247737,213.757766 C152.247737,214.404755 152.254125,215.144101 152.267639,215.976049 C152.479932,215.963099 152.735715,215.949661 153.034498,215.936467 C153.33328,215.923518 153.638696,215.9135 153.950747,215.906659 C154.262552,215.900062 154.568214,215.896886 154.866996,215.896886 C155.165779,215.896886 155.414928,215.903727 155.613952,215.916676 C155.826245,215.92987 155.975636,216.009278 156.062371,216.154166 C156.148369,216.299788 156.178346,216.484502 156.151809,216.709042 C156.125027,216.920145 156.042223,217.062345 155.902906,217.134667 C155.763343,217.207478 155.554245,217.257077 155.275365,217.283221 C155.1159,217.296659 154.857168,217.306432 154.498678,217.312785 C154.139943,217.31987 153.761551,217.326223 153.363256,217.33282 C152.964962,217.339661 152.596398,217.346014 152.257811,217.352611 C151.918978,217.359452 151.696366,217.362628 151.590465,217.362628 C151.404218,217.362628 151.251632,217.31987 151.132218,217.233621 C151.012803,217.148106 150.939582,216.966323 150.913045,216.689252 C150.913045,216.609844 150.906411,216.378951 150.893143,215.99584 C150.879874,215.612973 150.866606,215.134084 150.853338,214.559905 C150.840069,213.985239 150.823607,213.345091 150.803704,212.638485 C150.783802,211.932124 150.766848,211.212324 150.753825,210.479575 C150.740311,209.746581 150.723849,209.027026 150.703947,208.32042 C150.684044,207.614059 150.670776,206.973667 150.664142,206.399 C150.657262,205.824822 150.650873,205.349353 150.644239,204.973083 C150.637359,204.596813 150.634165,204.368852 150.634165,204.289689 C150.647188,204.025811 150.703947,203.860644 150.803704,203.79443 C150.903217,203.728705 151.005923,203.689123 151.112315,203.675685" id="Fill-112" fill="#353435"></path>
                    <path d="M162.7648,213.916117 C162.738018,213.255934 162.718115,212.566188 162.705093,211.846144 C162.691579,211.126588 162.675116,210.423403 162.655214,209.736833 C162.635311,209.050262 162.618603,208.389835 162.60558,207.75604 C162.592066,207.122 162.578798,206.554419 162.56553,206.052319 C162.552262,205.550951 162.542188,205.131434 162.535799,204.794746 C162.528919,204.458058 162.525725,204.237182 162.525725,204.131143 C162.525725,203.867265 162.588627,203.689147 162.714921,203.596546 C162.841216,203.504189 163.030412,203.457766 163.282755,203.457766 C163.548121,203.457766 163.720854,203.520559 163.800464,203.645901 C163.880319,203.771487 163.933147,204.025836 163.959929,204.408458 C163.959929,204.514498 163.966563,204.762006 163.979832,205.151225 C163.9931,205.540933 164.006368,206.019823 164.019636,206.587404 C164.032905,207.155229 164.046173,207.789025 164.059687,208.488789 C164.07271,209.188798 164.085978,209.89858 164.099492,210.618135 C164.112515,211.337935 164.122343,212.044296 164.129223,212.737464 C164.135857,213.430876 164.145685,214.058074 164.159199,214.619302 C164.172222,215.180775 164.179102,215.645982 164.179102,216.015655 L164.179102,216.709067 C164.165588,217.012771 164.089418,217.213855 163.950101,217.312809 C163.810538,217.412008 163.647879,217.461607 163.461877,217.461607 C163.275875,217.461607 163.086679,217.412008 162.894289,217.312809 C162.701653,217.213855 162.532359,216.973189 162.386408,216.589833 C162.346603,216.471088 162.266748,216.223581 162.147333,215.847066 C162.027673,215.470796 161.884916,215.015363 161.719062,214.480767 C161.552717,213.945681 161.373595,213.361241 161.181205,212.72769 C160.988569,212.093651 160.799373,211.466942 160.613617,210.846096 C160.467174,210.370383 160.324663,209.89858 160.185346,209.429708 C160.045783,208.961081 159.916294,208.538388 159.796879,208.161874 C159.677465,207.785604 159.574267,207.465774 159.488269,207.201408 C159.401534,206.93753 159.338878,206.772363 159.298827,206.706149 C159.205949,206.653373 159.139608,206.666567 159.099557,206.74573 L159.15951,216.887184 C159.145996,217.045755 159.089729,217.177938 158.990216,217.283245 C158.890459,217.389285 158.721165,217.441816 158.48209,217.441816 C158.256283,217.441816 158.100258,217.379267 158.01426,217.253437 C157.927524,217.128095 157.884771,216.926766 157.884771,216.64945 L157.864869,204.07177 C157.864869,203.847474 157.941038,203.702097 158.09387,203.636128 C158.246209,203.570158 158.455308,203.537173 158.721165,203.537173 C158.973263,203.537173 159.205949,203.599722 159.418487,203.725064 C159.63078,203.850895 159.809902,204.144581 159.956099,204.606367 C159.995904,204.7256 160.058805,204.933282 160.145541,205.230388 C160.231539,205.52774 160.334737,205.881042 160.454151,206.290297 C160.573812,206.699796 160.706249,207.155229 160.852692,207.656841 C160.998643,208.158942 161.144594,208.667151 161.290791,209.181957 C161.436742,209.697007 161.582693,210.20888 161.729136,210.717089 C161.874842,211.225542 162.00777,211.691238 162.127431,212.113442 C162.259868,212.575961 162.382968,212.962248 162.495994,213.272305 C162.608529,213.58285 162.67831,213.790531 162.705093,213.896326 C162.718115,213.90952 162.738018,213.916117 162.7648,213.916117" id="Fill-114" fill="#353435"></path>
                    <path d="M173.640304,203.457839 C174.437138,203.457839 175.084336,203.603216 175.582388,203.893482 C176.080441,204.184236 176.329344,204.547068 176.329344,204.982954 C176.329344,205.366066 176.256123,205.62017 176.110417,205.745512 C175.963975,205.871098 175.818023,205.933647 175.672072,205.933647 C175.499339,205.933647 175.346508,205.871098 175.21407,205.745512 C175.081142,205.62017 174.948213,205.48139 174.81553,205.329416 C174.682602,205.177931 174.53665,205.039395 174.377431,204.913564 C174.217966,204.788222 174.031964,204.725429 173.819671,204.725429 C173.514009,204.725429 173.30835,204.811434 173.202204,204.982954 C173.095812,205.154719 173.042739,205.471617 173.042739,205.933647 C173.042739,206.144993 173.072715,206.379307 173.132423,206.636832 C173.19213,206.894113 173.301716,207.194884 173.461182,207.537925 C173.620401,207.881455 173.839574,208.280692 174.118453,208.73637 C174.397333,209.192047 174.748943,209.723712 175.174266,210.330875 C175.545778,210.872557 175.831292,211.374169 176.030808,211.836199 C176.229832,212.298718 176.372343,212.721167 176.458833,213.103789 C176.545077,213.487145 176.594956,213.820413 176.608224,214.104081 C176.621247,214.388238 176.628126,214.616199 176.628126,214.787476 C176.628126,214.972679 176.594956,215.210413 176.528614,215.500678 C176.462027,215.791432 176.335978,216.081942 176.150222,216.371963 C175.963975,216.662717 175.691975,216.910469 175.333485,217.114974 C174.974995,217.319724 174.510114,217.421854 173.939086,217.421854 C173.354544,217.421854 172.87664,217.329497 172.504882,217.144783 C172.133124,216.959824 171.837781,216.748477 171.618609,216.510743 C171.399436,216.273009 171.246605,216.038695 171.160361,215.807558 C171.073872,215.57691 171.030873,215.408321 171.030873,215.30277 C171.030873,215.117811 171.073872,214.939449 171.160361,214.767685 C171.246605,214.596409 171.442435,214.51016 171.748098,214.51016 C171.907317,214.51016 172.026977,214.533371 172.106587,214.579794 C172.186443,214.625973 172.255978,214.691942 172.315686,214.777702 C172.375639,214.863707 172.438294,214.962661 172.504882,215.074809 C172.571223,215.187201 172.664347,215.30277 172.783762,215.421515 C173.036105,215.685637 173.242009,215.870596 173.401229,215.975902 C173.560694,216.081942 173.740061,216.134473 173.939086,216.134473 C174.045232,216.134473 174.178161,216.117859 174.33738,216.085118 C174.496846,216.052134 174.646237,215.98592 174.785799,215.886721 C174.925117,215.787767 175.044531,215.642635 175.144289,215.451079 C175.243801,215.260012 175.29368,215.01226 175.29368,214.708312 C175.29368,214.418047 175.263704,214.143663 175.203996,213.886382 C175.144289,213.628857 175.037651,213.341524 174.885312,213.024626 C174.732481,212.707729 174.526822,212.334879 174.267845,211.905589 C174.008867,211.476544 173.680354,210.95172 173.281814,210.330875 C172.923324,209.763294 172.627491,209.271211 172.395541,208.855359 C172.162855,208.439263 171.980293,208.062993 171.84761,207.726305 C171.714681,207.389616 171.621803,207.076139 171.56873,206.785385 C171.515657,206.49512 171.48912,206.191172 171.48912,205.874274 C171.48912,205.504846 171.552022,205.171089 171.678316,204.873983 C171.804365,204.576876 171.970219,204.322772 172.176369,204.111425 C172.382027,203.900323 172.614468,203.738331 172.873445,203.625939 C173.132423,203.514035 173.38796,203.457839 173.640304,203.457839" id="Fill-116" fill="#353435"></path>
                    <path d="M179.058141,203.675685 C179.496486,203.636103 179.997487,203.596522 180.562126,203.55694 C181.126274,203.517358 181.640789,203.497567 182.105671,203.497567 C182.623626,203.497567 182.995138,203.530308 183.22119,203.596522 C183.486556,203.675685 183.646021,203.784412 183.69934,203.923192 C183.752168,204.061972 183.765682,204.184138 183.739145,204.289689 C183.712363,204.395484 183.659535,204.527179 183.57968,204.68575 C183.50007,204.844321 183.307434,204.956469 183.002018,205.022683 C182.842798,205.062264 182.600283,205.095493 182.274964,205.121637 C181.949646,205.148024 181.627767,205.174657 181.309082,205.2008 C180.923564,205.227432 180.518636,205.25382 180.093805,205.279963 L180.133609,209.796181 C180.837566,209.796181 181.431691,209.799357 181.916475,209.805954 C182.401013,209.812795 182.689967,209.82941 182.783091,209.855553 C182.835918,209.881941 182.90914,209.911749 183.002018,209.944734 C183.094896,209.977719 183.181385,210.023897 183.260995,210.083514 C183.340851,210.142887 183.403752,210.22205 183.450191,210.321004 C183.49663,210.420202 183.513093,210.548721 183.50007,210.707292 C183.486556,210.852669 183.440363,210.971414 183.360753,211.063771 C183.281143,211.156372 183.191459,211.228939 183.091702,211.281714 C182.992189,211.334734 182.899066,211.370651 182.812822,211.390442 C182.726332,211.410232 182.670065,211.42025 182.643528,211.42025 L181.408594,211.42025 C181.102932,211.42025 180.824052,211.430023 180.571954,211.450058 C180.319611,211.469849 180.193562,211.493061 180.193562,211.519448 L180.193562,213.757766 C180.193562,214.404755 180.199951,215.144101 180.213465,215.976049 C180.425758,215.963099 180.681541,215.949661 180.980323,215.936467 C181.279105,215.923518 181.584522,215.9135 181.896572,215.906659 C182.208377,215.900062 182.514039,215.896886 182.812822,215.896886 C183.111604,215.896886 183.360753,215.903727 183.559777,215.916676 C183.77207,215.92987 183.921461,216.009278 184.008197,216.154166 C184.094195,216.299788 184.124171,216.484502 184.097635,216.709042 C184.070852,216.920145 183.988048,217.062345 183.848731,217.134667 C183.709169,217.207478 183.50007,217.257077 183.22119,217.283221 C183.061725,217.296659 182.802993,217.306432 182.444504,217.312785 C182.085768,217.31987 181.707376,217.326223 181.309082,217.33282 C180.910787,217.339661 180.542224,217.346014 180.203636,217.352611 C179.864804,217.359452 179.642191,217.362628 179.536291,217.362628 C179.350043,217.362628 179.197458,217.31987 179.078043,217.233621 C178.958628,217.148106 178.885407,216.966323 178.85887,216.689252 C178.85887,216.609844 178.852236,216.378951 178.838968,215.99584 C178.8257,215.612973 178.812431,215.134084 178.799163,214.559905 C178.785895,213.985239 178.769432,213.345091 178.74953,212.638485 C178.729627,211.932124 178.712674,211.212324 178.699651,210.479575 C178.686137,209.746581 178.669674,209.027026 178.649772,208.32042 C178.62987,207.614059 178.616601,206.973667 178.609967,206.399 C178.603087,205.824822 178.596699,205.349353 178.590065,204.973083 C178.583185,204.596813 178.579991,204.368852 178.579991,204.289689 C178.593013,204.025811 178.649772,203.860644 178.74953,203.79443 C178.849042,203.728705 178.951749,203.689123 179.058141,203.675685" id="Fill-118" fill="#353435"></path>
                    <path d="M189.555375,216.728784 C189.541861,216.900305 189.498616,217.032488 189.425886,217.124845 C189.352665,217.217447 189.266421,217.283416 189.166909,217.322998 C189.067397,217.362579 188.95781,217.38237 188.838396,217.38237 L188.519465,217.38237 L187.424094,217.38237 L186.706869,217.38237 L186.26877,217.38237 L186.009792,217.38237 C185.770717,217.395564 185.604372,217.322998 185.51174,217.164427 C185.418862,217.0061 185.378811,216.801351 185.392325,216.550423 C185.392325,216.471015 185.402154,216.395517 185.422056,216.322706 C185.441958,216.25014 185.498472,216.18417 185.59135,216.124553 C185.684228,216.065181 185.820596,216.015582 185.999718,215.976 C186.179086,215.936418 186.427989,215.916628 186.746674,215.916628 L186.746674,214.401286 C186.746674,213.761138 186.74004,213.064305 186.726771,212.311765 C186.713503,211.558981 186.699989,210.78665 186.686967,209.994284 C186.673453,209.201918 186.657236,208.462572 186.637333,207.775757 C186.617185,207.089431 186.600477,206.494973 186.587454,205.993117 C186.57394,205.491505 186.560672,205.154817 186.54765,204.983052 C186.09579,204.969858 185.78374,204.930277 185.611252,204.864063 C185.438764,204.798093 185.358909,204.613379 185.372423,204.309431 C185.385445,204.005972 185.468495,203.817592 185.621326,203.744782 C185.773666,203.67246 186.055986,203.629702 186.467794,203.616263 L188.599075,203.616263 C188.864687,203.629702 189.090248,203.662442 189.276495,203.715218 C189.462251,203.768237 189.555375,203.959793 189.555375,204.28964 C189.555375,204.447967 189.51213,204.573797 189.425886,204.66591 C189.339397,204.758512 189.223176,204.824481 189.077225,204.864063 C188.931028,204.903889 188.761734,204.930277 188.569344,204.94347 C188.376708,204.95642 188.173998,204.963261 187.961706,204.963261 C187.961706,205.359322 187.96834,205.838211 187.981608,206.399196 C187.994631,206.960669 188.004705,207.564655 188.011584,208.211644 C188.018219,208.858633 188.028047,209.535675 188.041561,210.241792 C188.054584,210.948398 188.067852,211.641565 188.081366,212.321539 C188.094388,213.001757 188.107657,213.651922 188.121171,214.272523 C188.134193,214.893369 188.147707,215.441159 188.160976,215.916628 C189.103762,215.877046 189.568397,216.147765 189.555375,216.728784" id="Fill-120" fill="#353435"></path>
                    <path d="M193.638373,203.457839 C194.435207,203.457839 195.082405,203.603216 195.580457,203.893482 C196.07851,204.184236 196.327413,204.547068 196.327413,204.982954 C196.327413,205.366066 196.254192,205.62017 196.108486,205.745512 C195.962044,205.871098 195.816093,205.933647 195.670141,205.933647 C195.497408,205.933647 195.344577,205.871098 195.212139,205.745512 C195.079211,205.62017 194.946282,205.48139 194.813599,205.329416 C194.680671,205.177931 194.534719,205.039395 194.3755,204.913564 C194.216035,204.788222 194.030033,204.725429 193.81774,204.725429 C193.512078,204.725429 193.30642,204.811434 193.200273,204.982954 C193.093881,205.154719 193.040808,205.471617 193.040808,205.933647 C193.040808,206.144993 193.070784,206.379307 193.130492,206.636832 C193.190199,206.894113 193.299785,207.194884 193.459251,207.537925 C193.61847,207.881455 193.837643,208.280692 194.116522,208.73637 C194.395402,209.192047 194.747012,209.723712 195.172335,210.330875 C195.543847,210.872557 195.829361,211.374169 196.028877,211.836199 C196.227901,212.298718 196.370412,212.721167 196.456902,213.103789 C196.543146,213.487145 196.593025,213.820413 196.606293,214.104081 C196.619316,214.388238 196.626195,214.616199 196.626195,214.787476 C196.626195,214.972679 196.593025,215.210413 196.526683,215.500678 C196.460096,215.791432 196.334047,216.081942 196.148291,216.371963 C195.962044,216.662717 195.690044,216.910469 195.331554,217.114974 C194.973064,217.319724 194.508183,217.421854 193.937155,217.421854 C193.352613,217.421854 192.874709,217.329497 192.502951,217.144783 C192.131193,216.959824 191.83585,216.748477 191.616678,216.510743 C191.397505,216.273009 191.244674,216.038695 191.15843,215.807558 C191.071941,215.57691 191.028942,215.408321 191.028942,215.30277 C191.028942,215.117811 191.071941,214.939449 191.15843,214.767685 C191.244674,214.596409 191.440504,214.51016 191.746167,214.51016 C191.905386,214.51016 192.025046,214.533371 192.104656,214.579794 C192.184512,214.625973 192.254047,214.691942 192.313755,214.777702 C192.373708,214.863707 192.436364,214.962661 192.502951,215.074809 C192.569292,215.187201 192.662416,215.30277 192.781831,215.421515 C193.034174,215.685637 193.240078,215.870596 193.399298,215.975902 C193.558763,216.081942 193.73813,216.134473 193.937155,216.134473 C194.043301,216.134473 194.17623,216.117859 194.335449,216.085118 C194.494915,216.052134 194.644306,215.98592 194.783868,215.886721 C194.923186,215.787767 195.0426,215.642635 195.142358,215.451079 C195.24187,215.260012 195.291749,215.01226 195.291749,214.708312 C195.291749,214.418047 195.261773,214.143663 195.202065,213.886382 C195.142358,213.628857 195.03572,213.341524 194.883381,213.024626 C194.73055,212.707729 194.524891,212.334879 194.265914,211.905589 C194.006936,211.476544 193.678423,210.95172 193.279883,210.330875 C192.921393,209.763294 192.62556,209.271211 192.39361,208.855359 C192.160924,208.439263 191.978362,208.062993 191.845679,207.726305 C191.71275,207.389616 191.619872,207.076139 191.566799,206.785385 C191.513726,206.49512 191.487189,206.191172 191.487189,205.874274 C191.487189,205.504846 191.550091,205.171089 191.676385,204.873983 C191.802434,204.576876 191.968288,204.322772 192.174438,204.111425 C192.380096,203.900323 192.612537,203.738331 192.871514,203.625939 C193.130492,203.514035 193.386029,203.457839 193.638373,203.457839" id="Fill-122" fill="#353435"></path>
                </g>
            </g>
        </g>
    </g>
</svg>